<?xml version="1.0" encoding="utf-8" standalone="no"?>
<!DOCTYPE svg PUBLIC "-//W3C//DTD SVG 1.1//EN"
  "http://www.w3.org/Graphics/SVG/1.1/DTD/svg11.dtd">
<svg xmlns:xlink="http://www.w3.org/1999/xlink" width="403.263973pt" height="336.111328pt" viewBox="0 0 403.263973 336.111328" xmlns="http://www.w3.org/2000/svg" version="1.1">
 <metadata>
  <rdf:RDF xmlns:dc="http://purl.org/dc/elements/1.1/" xmlns:cc="http://creativecommons.org/ns#" xmlns:rdf="http://www.w3.org/1999/02/22-rdf-syntax-ns#">
   <cc:Work>
    <dc:type rdf:resource="http://purl.org/dc/dcmitype/StillImage"/>
    <dc:date>2025-09-28T10:07:55.636712</dc:date>
    <dc:format>image/svg+xml</dc:format>
    <dc:creator>
     <cc:Agent>
      <dc:title>Matplotlib v3.8.0, https://matplotlib.org/</dc:title>
     </cc:Agent>
    </dc:creator>
   </cc:Work>
  </rdf:RDF>
 </metadata>
 <defs>
  <style type="text/css">*{stroke-linejoin: round; stroke-linecap: butt}</style>
 </defs>
 <g id="figure_1">
  <g id="patch_1">
   <path d="M 0 336.111328 
L 403.263973 336.111328 
L 403.263973 0 
L 0 0 
z
" style="fill: #ffffff"/>
  </g>
  <g id="axes_1">
   <g id="patch_2">
    <path d="M 59.185078 280.86 
L 329.630173 280.86 
L 329.630173 7.2 
L 59.185078 7.2 
z
" style="fill: #eaeaf2"/>
   </g>
   <g id="matplotlib.axis_1">
    <g id="xtick_1">
     <g id="line2d_1">
      <path d="M 71.478037 280.86 
L 71.478037 7.2 
" clip-path="url(#pb33d5b0c92)" style="fill: none; stroke: #ffffff; stroke-width: 1.5; stroke-linecap: round"/>
     </g>
     <g id="text_1">
      <!-- 0 -->
      <g style="fill: #262626" transform="translate(66.890264 305.170391) scale(0.165 -0.165)">
       <defs>
        <path id="ArialMT-30" d="M 266 2259 
Q 266 3072 433 3567 
Q 600 4063 929 4331 
Q 1259 4600 1759 4600 
Q 2128 4600 2406 4451 
Q 2684 4303 2865 4023 
Q 3047 3744 3150 3342 
Q 3253 2941 3253 2259 
Q 3253 1453 3087 958 
Q 2922 463 2592 192 
Q 2263 -78 1759 -78 
Q 1097 -78 719 397 
Q 266 969 266 2259 
z
M 844 2259 
Q 844 1131 1108 757 
Q 1372 384 1759 384 
Q 2147 384 2411 759 
Q 2675 1134 2675 2259 
Q 2675 3391 2411 3762 
Q 2147 4134 1753 4134 
Q 1366 4134 1134 3806 
Q 844 3388 844 2259 
z
" transform="scale(0.015625)"/>
       </defs>
       <use xlink:href="#ArialMT-30"/>
      </g>
     </g>
    </g>
    <g id="xtick_2">
     <g id="line2d_2">
      <path d="M 169.821708 280.86 
L 169.821708 7.2 
" clip-path="url(#pb33d5b0c92)" style="fill: none; stroke: #ffffff; stroke-width: 1.5; stroke-linecap: round"/>
     </g>
     <g id="text_2">
      <!-- 2 -->
      <g style="fill: #262626" transform="translate(165.233934 305.170391) scale(0.165 -0.165)">
       <defs>
        <path id="ArialMT-32" d="M 3222 541 
L 3222 0 
L 194 0 
Q 188 203 259 391 
Q 375 700 629 1000 
Q 884 1300 1366 1694 
Q 2113 2306 2375 2664 
Q 2638 3022 2638 3341 
Q 2638 3675 2398 3904 
Q 2159 4134 1775 4134 
Q 1369 4134 1125 3890 
Q 881 3647 878 3216 
L 300 3275 
Q 359 3922 746 4261 
Q 1134 4600 1788 4600 
Q 2447 4600 2831 4234 
Q 3216 3869 3216 3328 
Q 3216 3053 3103 2787 
Q 2991 2522 2730 2228 
Q 2469 1934 1863 1422 
Q 1356 997 1212 845 
Q 1069 694 975 541 
L 3222 541 
z
" transform="scale(0.015625)"/>
       </defs>
       <use xlink:href="#ArialMT-32"/>
      </g>
     </g>
    </g>
    <g id="xtick_3">
     <g id="line2d_3">
      <path d="M 268.165379 280.86 
L 268.165379 7.2 
" clip-path="url(#pb33d5b0c92)" style="fill: none; stroke: #ffffff; stroke-width: 1.5; stroke-linecap: round"/>
     </g>
     <g id="text_3">
      <!-- 4 -->
      <g style="fill: #262626" transform="translate(263.577605 305.170391) scale(0.165 -0.165)">
       <defs>
        <path id="ArialMT-34" d="M 2069 0 
L 2069 1097 
L 81 1097 
L 81 1613 
L 2172 4581 
L 2631 4581 
L 2631 1613 
L 3250 1613 
L 3250 1097 
L 2631 1097 
L 2631 0 
L 2069 0 
z
M 2069 1613 
L 2069 3678 
L 634 1613 
L 2069 1613 
z
" transform="scale(0.015625)"/>
       </defs>
       <use xlink:href="#ArialMT-34"/>
      </g>
     </g>
    </g>
    <g id="text_4">
     <!-- hour -->
     <g style="fill: #262626" transform="translate(176.396376 325.333828) scale(0.18 -0.18)">
      <defs>
       <path id="ArialMT-68" d="M 422 0 
L 422 4581 
L 984 4581 
L 984 2938 
Q 1378 3394 1978 3394 
Q 2347 3394 2619 3248 
Q 2891 3103 3008 2847 
Q 3125 2591 3125 2103 
L 3125 0 
L 2563 0 
L 2563 2103 
Q 2563 2525 2380 2717 
Q 2197 2909 1863 2909 
Q 1613 2909 1392 2779 
Q 1172 2650 1078 2428 
Q 984 2206 984 1816 
L 984 0 
L 422 0 
z
" transform="scale(0.015625)"/>
       <path id="ArialMT-6f" d="M 213 1659 
Q 213 2581 725 3025 
Q 1153 3394 1769 3394 
Q 2453 3394 2887 2945 
Q 3322 2497 3322 1706 
Q 3322 1066 3130 698 
Q 2938 331 2570 128 
Q 2203 -75 1769 -75 
Q 1072 -75 642 372 
Q 213 819 213 1659 
z
M 791 1659 
Q 791 1022 1069 705 
Q 1347 388 1769 388 
Q 2188 388 2466 706 
Q 2744 1025 2744 1678 
Q 2744 2294 2464 2611 
Q 2184 2928 1769 2928 
Q 1347 2928 1069 2612 
Q 791 2297 791 1659 
z
" transform="scale(0.015625)"/>
       <path id="ArialMT-75" d="M 2597 0 
L 2597 488 
Q 2209 -75 1544 -75 
Q 1250 -75 995 37 
Q 741 150 617 320 
Q 494 491 444 738 
Q 409 903 409 1263 
L 409 3319 
L 972 3319 
L 972 1478 
Q 972 1038 1006 884 
Q 1059 663 1231 536 
Q 1403 409 1656 409 
Q 1909 409 2131 539 
Q 2353 669 2445 892 
Q 2538 1116 2538 1541 
L 2538 3319 
L 3100 3319 
L 3100 0 
L 2597 0 
z
" transform="scale(0.015625)"/>
       <path id="ArialMT-72" d="M 416 0 
L 416 3319 
L 922 3319 
L 922 2816 
Q 1116 3169 1280 3281 
Q 1444 3394 1641 3394 
Q 1925 3394 2219 3213 
L 2025 2691 
Q 1819 2813 1613 2813 
Q 1428 2813 1281 2702 
Q 1134 2591 1072 2394 
Q 978 2094 978 1738 
L 978 0 
L 416 0 
z
" transform="scale(0.015625)"/>
      </defs>
      <use xlink:href="#ArialMT-68"/>
      <use xlink:href="#ArialMT-6f" x="55.615234"/>
      <use xlink:href="#ArialMT-75" x="111.230469"/>
      <use xlink:href="#ArialMT-72" x="166.845703"/>
     </g>
    </g>
   </g>
   <g id="matplotlib.axis_2">
    <g id="ytick_1">
     <g id="line2d_4">
      <path d="M 59.185078 267.049719 
L 329.630173 267.049719 
" clip-path="url(#pb33d5b0c92)" style="fill: none; stroke: #ffffff; stroke-width: 1.5; stroke-linecap: round"/>
     </g>
     <g id="text_5">
      <!-- −4 -->
      <g style="fill: #262626" transform="translate(27.8725 272.954915) scale(0.165 -0.165)">
       <defs>
        <path id="ArialMT-2212" d="M 3381 1997 
L 356 1997 
L 356 2522 
L 3381 2522 
L 3381 1997 
z
" transform="scale(0.015625)"/>
       </defs>
       <use xlink:href="#ArialMT-2212"/>
       <use xlink:href="#ArialMT-34" x="58.398438"/>
      </g>
     </g>
    </g>
    <g id="ytick_2">
     <g id="line2d_5">
      <path d="M 59.185078 213.318064 
L 329.630173 213.318064 
" clip-path="url(#pb33d5b0c92)" style="fill: none; stroke: #ffffff; stroke-width: 1.5; stroke-linecap: round"/>
     </g>
     <g id="text_6">
      <!-- −2 -->
      <g style="fill: #262626" transform="translate(27.8725 219.22326) scale(0.165 -0.165)">
       <use xlink:href="#ArialMT-2212"/>
       <use xlink:href="#ArialMT-32" x="58.398438"/>
      </g>
     </g>
    </g>
    <g id="ytick_3">
     <g id="line2d_6">
      <path d="M 59.185078 159.586409 
L 329.630173 159.586409 
" clip-path="url(#pb33d5b0c92)" style="fill: none; stroke: #ffffff; stroke-width: 1.5; stroke-linecap: round"/>
     </g>
     <g id="text_7">
      <!-- 0 -->
      <g style="fill: #262626" transform="translate(37.509531 165.491605) scale(0.165 -0.165)">
       <use xlink:href="#ArialMT-30"/>
      </g>
     </g>
    </g>
    <g id="ytick_4">
     <g id="line2d_7">
      <path d="M 59.185078 105.854754 
L 329.630173 105.854754 
" clip-path="url(#pb33d5b0c92)" style="fill: none; stroke: #ffffff; stroke-width: 1.5; stroke-linecap: round"/>
     </g>
     <g id="text_8">
      <!-- 2 -->
      <g style="fill: #262626" transform="translate(37.509531 111.75995) scale(0.165 -0.165)">
       <use xlink:href="#ArialMT-32"/>
      </g>
     </g>
    </g>
    <g id="ytick_5">
     <g id="line2d_8">
      <path d="M 59.185078 52.123099 
L 329.630173 52.123099 
" clip-path="url(#pb33d5b0c92)" style="fill: none; stroke: #ffffff; stroke-width: 1.5; stroke-linecap: round"/>
     </g>
     <g id="text_9">
      <!-- 4 -->
      <g style="fill: #262626" transform="translate(37.509531 58.028295) scale(0.165 -0.165)">
       <use xlink:href="#ArialMT-34"/>
      </g>
     </g>
    </g>
    <g id="text_10">
     <!-- log_conc -->
     <g style="fill: #262626" transform="translate(20.084062 180.053906) rotate(-90) scale(0.18 -0.18)">
      <defs>
       <path id="ArialMT-6c" d="M 409 0 
L 409 4581 
L 972 4581 
L 972 0 
L 409 0 
z
" transform="scale(0.015625)"/>
       <path id="ArialMT-67" d="M 319 -275 
L 866 -356 
Q 900 -609 1056 -725 
Q 1266 -881 1628 -881 
Q 2019 -881 2231 -725 
Q 2444 -569 2519 -288 
Q 2563 -116 2559 434 
Q 2191 0 1641 0 
Q 956 0 581 494 
Q 206 988 206 1678 
Q 206 2153 378 2554 
Q 550 2956 876 3175 
Q 1203 3394 1644 3394 
Q 2231 3394 2613 2919 
L 2613 3319 
L 3131 3319 
L 3131 450 
Q 3131 -325 2973 -648 
Q 2816 -972 2473 -1159 
Q 2131 -1347 1631 -1347 
Q 1038 -1347 672 -1080 
Q 306 -813 319 -275 
z
M 784 1719 
Q 784 1066 1043 766 
Q 1303 466 1694 466 
Q 2081 466 2343 764 
Q 2606 1063 2606 1700 
Q 2606 2309 2336 2618 
Q 2066 2928 1684 2928 
Q 1309 2928 1046 2623 
Q 784 2319 784 1719 
z
" transform="scale(0.015625)"/>
       <path id="ArialMT-5f" d="M -97 -1272 
L -97 -866 
L 3631 -866 
L 3631 -1272 
L -97 -1272 
z
" transform="scale(0.015625)"/>
       <path id="ArialMT-63" d="M 2588 1216 
L 3141 1144 
Q 3050 572 2676 248 
Q 2303 -75 1759 -75 
Q 1078 -75 664 370 
Q 250 816 250 1647 
Q 250 2184 428 2587 
Q 606 2991 970 3192 
Q 1334 3394 1763 3394 
Q 2303 3394 2647 3120 
Q 2991 2847 3088 2344 
L 2541 2259 
Q 2463 2594 2264 2762 
Q 2066 2931 1784 2931 
Q 1359 2931 1093 2626 
Q 828 2322 828 1663 
Q 828 994 1084 691 
Q 1341 388 1753 388 
Q 2084 388 2306 591 
Q 2528 794 2588 1216 
z
" transform="scale(0.015625)"/>
       <path id="ArialMT-6e" d="M 422 0 
L 422 3319 
L 928 3319 
L 928 2847 
Q 1294 3394 1984 3394 
Q 2284 3394 2536 3286 
Q 2788 3178 2913 3003 
Q 3038 2828 3088 2588 
Q 3119 2431 3119 2041 
L 3119 0 
L 2556 0 
L 2556 2019 
Q 2556 2363 2490 2533 
Q 2425 2703 2258 2804 
Q 2091 2906 1866 2906 
Q 1506 2906 1245 2678 
Q 984 2450 984 1813 
L 984 0 
L 422 0 
z
" transform="scale(0.015625)"/>
      </defs>
      <use xlink:href="#ArialMT-6c"/>
      <use xlink:href="#ArialMT-6f" x="22.216797"/>
      <use xlink:href="#ArialMT-67" x="77.832031"/>
      <use xlink:href="#ArialMT-5f" x="133.447266"/>
      <use xlink:href="#ArialMT-63" x="189.0625"/>
      <use xlink:href="#ArialMT-6f" x="239.0625"/>
      <use xlink:href="#ArialMT-6e" x="294.677734"/>
      <use xlink:href="#ArialMT-63" x="350.292969"/>
     </g>
    </g>
   </g>
   <g id="PathCollection_1">
    <defs>
     <path id="m38c3877a34" d="M 0 4.5 
C 1.193414 4.5 2.338109 4.025852 3.181981 3.181981 
C 4.025852 2.338109 4.5 1.193414 4.5 0 
C 4.5 -1.193414 4.025852 -2.338109 3.181981 -3.181981 
C 2.338109 -4.025852 1.193414 -4.5 0 -4.5 
C -1.193414 -4.5 -2.338109 -4.025852 -3.181981 -3.181981 
C -4.025852 -2.338109 -4.5 -1.193414 -4.5 0 
C -4.5 1.193414 -4.025852 2.338109 -3.181981 3.181981 
C -2.338109 4.025852 -1.193414 4.5 0 4.5 
z
" style="stroke: #4c72b0; stroke-opacity: 0.8"/>
    </defs>
    <g clip-path="url(#pb33d5b0c92)">
     <use xlink:href="#m38c3877a34" x="71.478037" y="21.693141" style="fill: #4c72b0; fill-opacity: 0.8; stroke: #4c72b0; stroke-opacity: 0.8"/>
     <use xlink:href="#m38c3877a34" x="120.649872" y="113.092595" style="fill: #4c72b0; fill-opacity: 0.8; stroke: #4c72b0; stroke-opacity: 0.8"/>
     <use xlink:href="#m38c3877a34" x="169.821708" y="119.424025" style="fill: #4c72b0; fill-opacity: 0.8; stroke: #4c72b0; stroke-opacity: 0.8"/>
     <use xlink:href="#m38c3877a34" x="218.993543" y="122.748505" style="fill: #4c72b0; fill-opacity: 0.8; stroke: #4c72b0; stroke-opacity: 0.8"/>
     <use xlink:href="#m38c3877a34" x="268.165379" y="128.598932" style="fill: #4c72b0; fill-opacity: 0.8; stroke: #4c72b0; stroke-opacity: 0.8"/>
     <use xlink:href="#m38c3877a34" x="317.337214" y="149.072033" style="fill: #4c72b0; fill-opacity: 0.8; stroke: #4c72b0; stroke-opacity: 0.8"/>
     <use xlink:href="#m38c3877a34" x="71.478037" y="19.639091" style="fill: #4c72b0; fill-opacity: 0.8; stroke: #4c72b0; stroke-opacity: 0.8"/>
     <use xlink:href="#m38c3877a34" x="120.649872" y="88.655264" style="fill: #4c72b0; fill-opacity: 0.8; stroke: #4c72b0; stroke-opacity: 0.8"/>
     <use xlink:href="#m38c3877a34" x="169.821708" y="122.108411" style="fill: #4c72b0; fill-opacity: 0.8; stroke: #4c72b0; stroke-opacity: 0.8"/>
     <use xlink:href="#m38c3877a34" x="218.993543" y="82.223797" style="fill: #4c72b0; fill-opacity: 0.8; stroke: #4c72b0; stroke-opacity: 0.8"/>
     <use xlink:href="#m38c3877a34" x="268.165379" y="159.8022" style="fill: #4c72b0; fill-opacity: 0.8; stroke: #4c72b0; stroke-opacity: 0.8"/>
     <use xlink:href="#m38c3877a34" x="317.337214" y="144.185926" style="fill: #4c72b0; fill-opacity: 0.8; stroke: #4c72b0; stroke-opacity: 0.8"/>
     <use xlink:href="#m38c3877a34" x="71.478037" y="59.597002" style="fill: #4c72b0; fill-opacity: 0.8; stroke: #4c72b0; stroke-opacity: 0.8"/>
     <use xlink:href="#m38c3877a34" x="120.649872" y="56.411514" style="fill: #4c72b0; fill-opacity: 0.8; stroke: #4c72b0; stroke-opacity: 0.8"/>
     <use xlink:href="#m38c3877a34" x="169.821708" y="108.436642" style="fill: #4c72b0; fill-opacity: 0.8; stroke: #4c72b0; stroke-opacity: 0.8"/>
     <use xlink:href="#m38c3877a34" x="218.993543" y="133.80238" style="fill: #4c72b0; fill-opacity: 0.8; stroke: #4c72b0; stroke-opacity: 0.8"/>
     <use xlink:href="#m38c3877a34" x="268.165379" y="164.111116" style="fill: #4c72b0; fill-opacity: 0.8; stroke: #4c72b0; stroke-opacity: 0.8"/>
     <use xlink:href="#m38c3877a34" x="317.337214" y="114.893836" style="fill: #4c72b0; fill-opacity: 0.8; stroke: #4c72b0; stroke-opacity: 0.8"/>
     <use xlink:href="#m38c3877a34" x="71.478037" y="44.277377" style="fill: #4c72b0; fill-opacity: 0.8; stroke: #4c72b0; stroke-opacity: 0.8"/>
     <use xlink:href="#m38c3877a34" x="120.649872" y="59.078231" style="fill: #4c72b0; fill-opacity: 0.8; stroke: #4c72b0; stroke-opacity: 0.8"/>
     <use xlink:href="#m38c3877a34" x="169.821708" y="123.579473" style="fill: #4c72b0; fill-opacity: 0.8; stroke: #4c72b0; stroke-opacity: 0.8"/>
     <use xlink:href="#m38c3877a34" x="218.993543" y="124.234422" style="fill: #4c72b0; fill-opacity: 0.8; stroke: #4c72b0; stroke-opacity: 0.8"/>
     <use xlink:href="#m38c3877a34" x="268.165379" y="89.246342" style="fill: #4c72b0; fill-opacity: 0.8; stroke: #4c72b0; stroke-opacity: 0.8"/>
     <use xlink:href="#m38c3877a34" x="317.337214" y="134.060857" style="fill: #4c72b0; fill-opacity: 0.8; stroke: #4c72b0; stroke-opacity: 0.8"/>
     <use xlink:href="#m38c3877a34" x="71.478037" y="67.759308" style="fill: #4c72b0; fill-opacity: 0.8; stroke: #4c72b0; stroke-opacity: 0.8"/>
     <use xlink:href="#m38c3877a34" x="120.649872" y="31.646436" style="fill: #4c72b0; fill-opacity: 0.8; stroke: #4c72b0; stroke-opacity: 0.8"/>
     <use xlink:href="#m38c3877a34" x="169.821708" y="121.541822" style="fill: #4c72b0; fill-opacity: 0.8; stroke: #4c72b0; stroke-opacity: 0.8"/>
     <use xlink:href="#m38c3877a34" x="218.993543" y="150.222541" style="fill: #4c72b0; fill-opacity: 0.8; stroke: #4c72b0; stroke-opacity: 0.8"/>
     <use xlink:href="#m38c3877a34" x="268.165379" y="128.581982" style="fill: #4c72b0; fill-opacity: 0.8; stroke: #4c72b0; stroke-opacity: 0.8"/>
     <use xlink:href="#m38c3877a34" x="317.337214" y="169.750731" style="fill: #4c72b0; fill-opacity: 0.8; stroke: #4c72b0; stroke-opacity: 0.8"/>
    </g>
   </g>
   <g id="PolyCollection_1">
    <defs>
     <path id="meac14a2c9a" d="M 71.478037 -296.145816 
L 71.478037 -262.434119 
L 73.961463 -261.692977 
L 76.444889 -260.918267 
L 78.928315 -260.145128 
L 81.411741 -259.40992 
L 83.895167 -258.646669 
L 86.378593 -257.885938 
L 88.862019 -257.125207 
L 91.345445 -256.364476 
L 93.828871 -255.603745 
L 96.312297 -254.843014 
L 98.795723 -254.093713 
L 101.279149 -253.355008 
L 103.762575 -252.616303 
L 106.246001 -251.876937 
L 108.729427 -251.137791 
L 111.212854 -250.332643 
L 113.69628 -249.513815 
L 116.179706 -248.72309 
L 118.663132 -247.964298 
L 121.146558 -247.138291 
L 123.629984 -246.347078 
L 126.11341 -245.619365 
L 128.596836 -244.87612 
L 131.080262 -244.170645 
L 133.563688 -243.42135 
L 136.047114 -242.659652 
L 138.53054 -241.831376 
L 141.013966 -240.987722 
L 143.497392 -240.091335 
L 145.980818 -239.172274 
L 148.464244 -238.236593 
L 150.94767 -237.316984 
L 153.431096 -236.493719 
L 155.914522 -235.561886 
L 158.397948 -234.865143 
L 160.881374 -233.995666 
L 163.3648 -233.080977 
L 165.848226 -232.213151 
L 168.331652 -231.38388 
L 170.815078 -230.484628 
L 173.298504 -229.642774 
L 175.78193 -228.718979 
L 178.265356 -227.684824 
L 180.748782 -226.68423 
L 183.232208 -225.763801 
L 185.715635 -224.883024 
L 188.199061 -223.956359 
L 190.682487 -223.000216 
L 193.165913 -222.13323 
L 195.649339 -221.181829 
L 198.132765 -220.149426 
L 200.616191 -218.962284 
L 203.099617 -218.043747 
L 205.583043 -217.113855 
L 208.066469 -215.976234 
L 210.549895 -214.830051 
L 213.033321 -213.701147 
L 215.516747 -212.570007 
L 218.000173 -211.314386 
L 220.483599 -210.086466 
L 222.967025 -208.957553 
L 225.450451 -208.12982 
L 227.933877 -206.942807 
L 230.417303 -205.896571 
L 232.900729 -204.639496 
L 235.384155 -203.468012 
L 237.867581 -202.344085 
L 240.351007 -201.063049 
L 242.834433 -200.02391 
L 245.317859 -198.785438 
L 247.801285 -197.571776 
L 250.284711 -196.491058 
L 252.768137 -195.291692 
L 255.251563 -194.086969 
L 257.734989 -192.882246 
L 260.218416 -191.653698 
L 262.701842 -190.35543 
L 265.185268 -189.054138 
L 267.668694 -187.750074 
L 270.15212 -186.459949 
L 272.635546 -185.252395 
L 275.118972 -184.046129 
L 277.602398 -182.840139 
L 280.085824 -181.634149 
L 282.56925 -180.416291 
L 285.052676 -179.065689 
L 287.536102 -177.715086 
L 290.019528 -176.441091 
L 292.502954 -175.19989 
L 294.98638 -173.996042 
L 297.469806 -172.867209 
L 299.953232 -171.733027 
L 302.436658 -170.463849 
L 304.920084 -169.194672 
L 307.40351 -167.925494 
L 309.886936 -166.656317 
L 312.370362 -165.385603 
L 314.853788 -164.117962 
L 317.337214 -162.848785 
L 317.337214 -195.114519 
L 317.337214 -195.114519 
L 314.853788 -195.953391 
L 312.370362 -196.762893 
L 309.886936 -197.572395 
L 307.40351 -198.381859 
L 304.920084 -199.194974 
L 302.436658 -200.049772 
L 299.953232 -200.882812 
L 297.469806 -201.713812 
L 294.98638 -202.542131 
L 292.502954 -203.390525 
L 290.019528 -204.32399 
L 287.536102 -205.137215 
L 285.052676 -205.90891 
L 282.56925 -206.704606 
L 280.085824 -207.55581 
L 277.602398 -208.45576 
L 275.118972 -209.343973 
L 272.635546 -210.25141 
L 270.15212 -211.15104 
L 267.668694 -212.130646 
L 265.185268 -212.947524 
L 262.701842 -213.847806 
L 260.218416 -214.767434 
L 257.734989 -215.713354 
L 255.251563 -216.66408 
L 252.768137 -217.550534 
L 250.284711 -218.377941 
L 247.801285 -219.384367 
L 245.317859 -220.289705 
L 242.834433 -221.305198 
L 240.351007 -222.201594 
L 237.867581 -223.134041 
L 235.384155 -224.122269 
L 232.900729 -225.020416 
L 230.417303 -225.917747 
L 227.933877 -226.785427 
L 225.450451 -227.718128 
L 222.967025 -228.616323 
L 220.483599 -229.605584 
L 218.000173 -230.654702 
L 215.516747 -231.4695 
L 213.033321 -232.461742 
L 210.549895 -233.417232 
L 208.066469 -234.447874 
L 205.583043 -235.354359 
L 203.099617 -236.27296 
L 200.616191 -237.337999 
L 198.132765 -238.293994 
L 195.649339 -239.354035 
L 193.165913 -240.438963 
L 190.682487 -241.390834 
L 188.199061 -242.358508 
L 185.715635 -243.408409 
L 183.232208 -244.488574 
L 180.748782 -245.587238 
L 178.265356 -246.721127 
L 175.78193 -247.853775 
L 173.298504 -248.916093 
L 170.815078 -249.92919 
L 168.331652 -250.959229 
L 165.848226 -252.179657 
L 163.3648 -253.330669 
L 160.881374 -254.279657 
L 158.397948 -255.387886 
L 155.914522 -256.475002 
L 153.431096 -257.525849 
L 150.94767 -258.652726 
L 148.464244 -259.781112 
L 145.980818 -260.914067 
L 143.497392 -262.224754 
L 141.013966 -263.495972 
L 138.53054 -264.6527 
L 136.047114 -265.812338 
L 133.563688 -266.958327 
L 131.080262 -267.983151 
L 128.596836 -269.22967 
L 126.11341 -270.443019 
L 123.629984 -271.601098 
L 121.146558 -272.75593 
L 118.663132 -273.899817 
L 116.179706 -275.040585 
L 113.69628 -276.169005 
L 111.212854 -277.39147 
L 108.729427 -278.552808 
L 106.246001 -279.710142 
L 103.762575 -280.868958 
L 101.279149 -282.027774 
L 98.795723 -283.18497 
L 96.312297 -284.424852 
L 93.828871 -285.541902 
L 91.345445 -286.660299 
L 88.862019 -287.82037 
L 86.378593 -289.089847 
L 83.895167 -290.373634 
L 81.411741 -291.633156 
L 78.928315 -292.821429 
L 76.444889 -293.929797 
L 73.961463 -295.038165 
L 71.478037 -296.145816 
z
" style="stroke: #ffffff; stroke-opacity: 0.15; stroke-width: 1.5"/>
    </defs>
    <g clip-path="url(#pb33d5b0c92)">
     <use xlink:href="#meac14a2c9a" x="0" y="336.111328" style="fill: #4c72b0; fill-opacity: 0.15; stroke: #ffffff; stroke-opacity: 0.15; stroke-width: 1.5"/>
    </g>
   </g>
   <g id="PathCollection_2">
    <defs>
     <path id="m2a2634362e" d="M 0 4.5 
C 1.193414 4.5 2.338109 4.025852 3.181981 3.181981 
C 4.025852 2.338109 4.5 1.193414 4.5 0 
C 4.5 -1.193414 4.025852 -2.338109 3.181981 -3.181981 
C 2.338109 -4.025852 1.193414 -4.5 0 -4.5 
C -1.193414 -4.5 -2.338109 -4.025852 -3.181981 -3.181981 
C -4.025852 -2.338109 -4.5 -1.193414 -4.5 0 
C -4.5 1.193414 -4.025852 2.338109 -3.181981 3.181981 
C -2.338109 4.025852 -1.193414 4.5 0 4.5 
z
" style="stroke: #dd8452; stroke-opacity: 0.8"/>
    </defs>
    <g clip-path="url(#pb33d5b0c92)">
     <use xlink:href="#m2a2634362e" x="71.478037" y="47.024611" style="fill: #dd8452; fill-opacity: 0.8; stroke: #dd8452; stroke-opacity: 0.8"/>
     <use xlink:href="#m2a2634362e" x="120.649872" y="112.079023" style="fill: #dd8452; fill-opacity: 0.8; stroke: #dd8452; stroke-opacity: 0.8"/>
     <use xlink:href="#m2a2634362e" x="169.821708" y="90.830288" style="fill: #dd8452; fill-opacity: 0.8; stroke: #dd8452; stroke-opacity: 0.8"/>
     <use xlink:href="#m2a2634362e" x="218.993543" y="142.943012" style="fill: #dd8452; fill-opacity: 0.8; stroke: #dd8452; stroke-opacity: 0.8"/>
     <use xlink:href="#m2a2634362e" x="268.165379" y="266.064181" style="fill: #dd8452; fill-opacity: 0.8; stroke: #dd8452; stroke-opacity: 0.8"/>
     <use xlink:href="#m2a2634362e" x="317.337214" y="230.272797" style="fill: #dd8452; fill-opacity: 0.8; stroke: #dd8452; stroke-opacity: 0.8"/>
     <use xlink:href="#m2a2634362e" x="71.478037" y="21.096294" style="fill: #dd8452; fill-opacity: 0.8; stroke: #dd8452; stroke-opacity: 0.8"/>
     <use xlink:href="#m2a2634362e" x="120.649872" y="112.85564" style="fill: #dd8452; fill-opacity: 0.8; stroke: #dd8452; stroke-opacity: 0.8"/>
     <use xlink:href="#m2a2634362e" x="169.821708" y="145.505045" style="fill: #dd8452; fill-opacity: 0.8; stroke: #dd8452; stroke-opacity: 0.8"/>
     <use xlink:href="#m2a2634362e" x="218.993543" y="230.648549" style="fill: #dd8452; fill-opacity: 0.8; stroke: #dd8452; stroke-opacity: 0.8"/>
     <use xlink:href="#m2a2634362e" x="268.165379" y="217.92708" style="fill: #dd8452; fill-opacity: 0.8; stroke: #dd8452; stroke-opacity: 0.8"/>
     <use xlink:href="#m2a2634362e" x="317.337214" y="213.186432" style="fill: #dd8452; fill-opacity: 0.8; stroke: #dd8452; stroke-opacity: 0.8"/>
     <use xlink:href="#m2a2634362e" x="71.478037" y="19.884439" style="fill: #dd8452; fill-opacity: 0.8; stroke: #dd8452; stroke-opacity: 0.8"/>
     <use xlink:href="#m2a2634362e" x="120.649872" y="65.003137" style="fill: #dd8452; fill-opacity: 0.8; stroke: #dd8452; stroke-opacity: 0.8"/>
     <use xlink:href="#m2a2634362e" x="169.821708" y="142.56967" style="fill: #dd8452; fill-opacity: 0.8; stroke: #dd8452; stroke-opacity: 0.8"/>
     <use xlink:href="#m2a2634362e" x="218.993543" y="151.089567" style="fill: #dd8452; fill-opacity: 0.8; stroke: #dd8452; stroke-opacity: 0.8"/>
     <use xlink:href="#m2a2634362e" x="268.165379" y="180.448498" style="fill: #dd8452; fill-opacity: 0.8; stroke: #dd8452; stroke-opacity: 0.8"/>
     <use xlink:href="#m2a2634362e" x="317.337214" y="243.503585" style="fill: #dd8452; fill-opacity: 0.8; stroke: #dd8452; stroke-opacity: 0.8"/>
     <use xlink:href="#m2a2634362e" x="71.478037" y="67.959955" style="fill: #dd8452; fill-opacity: 0.8; stroke: #dd8452; stroke-opacity: 0.8"/>
     <use xlink:href="#m2a2634362e" x="120.649872" y="100.892581" style="fill: #dd8452; fill-opacity: 0.8; stroke: #dd8452; stroke-opacity: 0.8"/>
     <use xlink:href="#m2a2634362e" x="169.821708" y="122.850981" style="fill: #dd8452; fill-opacity: 0.8; stroke: #dd8452; stroke-opacity: 0.8"/>
     <use xlink:href="#m2a2634362e" x="218.993543" y="178.806029" style="fill: #dd8452; fill-opacity: 0.8; stroke: #dd8452; stroke-opacity: 0.8"/>
     <use xlink:href="#m2a2634362e" x="268.165379" y="226.778812" style="fill: #dd8452; fill-opacity: 0.8; stroke: #dd8452; stroke-opacity: 0.8"/>
     <use xlink:href="#m2a2634362e" x="317.337214" y="216.549044" style="fill: #dd8452; fill-opacity: 0.8; stroke: #dd8452; stroke-opacity: 0.8"/>
    </g>
   </g>
   <g id="PolyCollection_2">
    <defs>
     <path id="m00d2e88045" d="M 71.478037 -301.495794 
L 71.478037 -267.024842 
L 73.961463 -265.329133 
L 76.444889 -263.653164 
L 78.928315 -262.026082 
L 81.411741 -260.398999 
L 83.895167 -258.725832 
L 86.378593 -256.926502 
L 88.862019 -255.146148 
L 91.345445 -253.359406 
L 93.828871 -251.696292 
L 96.312297 -250.035225 
L 98.795723 -248.279762 
L 101.279149 -246.52866 
L 103.762575 -244.717317 
L 106.246001 -242.926122 
L 108.729427 -241.119572 
L 111.212854 -239.313407 
L 113.69628 -237.507243 
L 116.179706 -235.736853 
L 118.663132 -234.15001 
L 121.146558 -232.237464 
L 123.629984 -230.407805 
L 126.11341 -228.581675 
L 128.596836 -226.685369 
L 131.080262 -224.933079 
L 133.563688 -223.188096 
L 136.047114 -221.319255 
L 138.53054 -219.659649 
L 141.013966 -217.831214 
L 143.497392 -215.925178 
L 145.980818 -214.08503 
L 148.464244 -212.28501 
L 150.94767 -210.485532 
L 153.431096 -208.695015 
L 155.914522 -206.954125 
L 158.397948 -205.082009 
L 160.881374 -203.184752 
L 163.3648 -201.265346 
L 165.848226 -199.266089 
L 168.331652 -197.468956 
L 170.815078 -195.66137 
L 173.298504 -193.665107 
L 175.78193 -191.590704 
L 178.265356 -189.515135 
L 180.748782 -187.625986 
L 183.232208 -185.814009 
L 185.715635 -183.849919 
L 188.199061 -181.696977 
L 190.682487 -179.541508 
L 193.165913 -177.567132 
L 195.649339 -175.430413 
L 198.132765 -173.252216 
L 200.616191 -171.00309 
L 203.099617 -169.017477 
L 205.583043 -166.818966 
L 208.066469 -164.634543 
L 210.549895 -162.388951 
L 213.033321 -160.166588 
L 215.516747 -157.947375 
L 218.000173 -155.847111 
L 220.483599 -153.693338 
L 222.967025 -151.539565 
L 225.450451 -149.400042 
L 227.933877 -147.43994 
L 230.417303 -145.459829 
L 232.900729 -143.367854 
L 235.384155 -141.185694 
L 237.867581 -139.001199 
L 240.351007 -136.820947 
L 242.834433 -134.652884 
L 245.317859 -132.656616 
L 247.801285 -130.331647 
L 250.284711 -128.08373 
L 252.768137 -125.83648 
L 255.251563 -123.679406 
L 257.734989 -121.466821 
L 260.218416 -119.302639 
L 262.701842 -117.138456 
L 265.185268 -114.974274 
L 267.668694 -112.810091 
L 270.15212 -110.611447 
L 272.635546 -108.455207 
L 275.118972 -106.147411 
L 277.602398 -103.875777 
L 280.085824 -101.635888 
L 282.56925 -99.430973 
L 285.052676 -97.159163 
L 287.536102 -94.918901 
L 290.019528 -92.678639 
L 292.502954 -90.403528 
L 294.98638 -88.09611 
L 297.469806 -85.796389 
L 299.953232 -83.502051 
L 302.436658 -81.190794 
L 304.920084 -78.862854 
L 307.40351 -76.567985 
L 309.886936 -74.396385 
L 312.370362 -72.121973 
L 314.853788 -69.856401 
L 317.337214 -67.690419 
L 317.337214 -108.187738 
L 317.337214 -108.187738 
L 314.853788 -109.78722 
L 312.370362 -111.671063 
L 309.886936 -113.395586 
L 307.40351 -115.205698 
L 304.920084 -117.031936 
L 302.436658 -118.802762 
L 299.953232 -120.503089 
L 297.469806 -122.201017 
L 294.98638 -123.913273 
L 292.502954 -125.716457 
L 290.019528 -127.475318 
L 287.536102 -129.266572 
L 285.052676 -131.024117 
L 282.56925 -132.737631 
L 280.085824 -134.58524 
L 277.602398 -136.434009 
L 275.118972 -138.322444 
L 272.635546 -140.133593 
L 270.15212 -141.909866 
L 267.668694 -143.700819 
L 265.185268 -145.427598 
L 262.701842 -147.257708 
L 260.218416 -148.983948 
L 257.734989 -150.766022 
L 255.251563 -152.653746 
L 252.768137 -154.371806 
L 250.284711 -156.265258 
L 247.801285 -158.199845 
L 245.317859 -160.037461 
L 242.834433 -161.761344 
L 240.351007 -163.485503 
L 237.867581 -165.3608 
L 235.384155 -167.293419 
L 232.900729 -169.223965 
L 230.417303 -171.230861 
L 227.933877 -173.324222 
L 225.450451 -175.17747 
L 222.967025 -177.008813 
L 220.483599 -178.840155 
L 218.000173 -180.668921 
L 215.516747 -182.501107 
L 213.033321 -184.404886 
L 210.549895 -186.401221 
L 208.066469 -188.232776 
L 205.583043 -190.060982 
L 203.099617 -191.907767 
L 200.616191 -193.763526 
L 198.132765 -195.573193 
L 195.649339 -197.512468 
L 193.165913 -199.458921 
L 190.682487 -201.438366 
L 188.199061 -203.468602 
L 185.715635 -205.498838 
L 183.232208 -207.523368 
L 180.748782 -209.504978 
L 178.265356 -211.550914 
L 175.78193 -213.32093 
L 173.298504 -215.355388 
L 170.815078 -217.277738 
L 168.331652 -219.388649 
L 165.848226 -221.322903 
L 163.3648 -223.373459 
L 160.881374 -225.513147 
L 158.397948 -227.590608 
L 155.914522 -229.674288 
L 153.431096 -231.755676 
L 150.94767 -233.754095 
L 148.464244 -235.821859 
L 145.980818 -237.738136 
L 143.497392 -239.653343 
L 141.013966 -241.695525 
L 138.53054 -243.817745 
L 136.047114 -245.938195 
L 133.563688 -247.923491 
L 131.080262 -249.923128 
L 128.596836 -252.087076 
L 126.11341 -254.2503 
L 123.629984 -256.316427 
L 121.146558 -258.349471 
L 118.663132 -260.40912 
L 116.179706 -262.44557 
L 113.69628 -264.496569 
L 111.212854 -266.746103 
L 108.729427 -268.995636 
L 106.246001 -271.249583 
L 103.762575 -273.39716 
L 101.279149 -275.477302 
L 98.795723 -277.556096 
L 96.312297 -279.699974 
L 93.828871 -281.841789 
L 91.345445 -284.158972 
L 88.862019 -286.457504 
L 86.378593 -288.537403 
L 83.895167 -290.627801 
L 81.411741 -292.699027 
L 78.928315 -294.790513 
L 76.444889 -296.942686 
L 73.961463 -299.254614 
L 71.478037 -301.495794 
z
" style="stroke: #ffffff; stroke-opacity: 0.15; stroke-width: 1.5"/>
    </defs>
    <g clip-path="url(#pb33d5b0c92)">
     <use xlink:href="#m00d2e88045" x="0" y="336.111328" style="fill: #dd8452; fill-opacity: 0.15; stroke: #ffffff; stroke-opacity: 0.15; stroke-width: 1.5"/>
    </g>
   </g>
   <g id="line2d_9">
    <path d="M 71.478037 55.403985 
L 73.961463 56.407592 
L 76.444889 57.411199 
L 78.928315 58.414806 
L 81.411741 59.418413 
L 83.895167 60.42202 
L 86.378593 61.425627 
L 88.862019 62.429234 
L 91.345445 63.432841 
L 93.828871 64.436448 
L 96.312297 65.440055 
L 98.795723 66.443662 
L 101.279149 67.447269 
L 103.762575 68.450876 
L 106.246001 69.454483 
L 108.729427 70.45809 
L 111.212854 71.461697 
L 113.69628 72.465304 
L 116.179706 73.468911 
L 118.663132 74.472518 
L 121.146558 75.476125 
L 123.629984 76.479732 
L 126.11341 77.483339 
L 128.596836 78.486946 
L 131.080262 79.490553 
L 133.563688 80.49416 
L 136.047114 81.497767 
L 138.53054 82.501374 
L 141.013966 83.504981 
L 143.497392 84.508588 
L 145.980818 85.512195 
L 148.464244 86.515802 
L 150.94767 87.519409 
L 153.431096 88.523016 
L 155.914522 89.526623 
L 158.397948 90.53023 
L 160.881374 91.533837 
L 163.3648 92.537444 
L 165.848226 93.541051 
L 168.331652 94.544658 
L 170.815078 95.548265 
L 173.298504 96.551872 
L 175.78193 97.555479 
L 178.265356 98.559086 
L 180.748782 99.562693 
L 183.232208 100.5663 
L 185.715635 101.569907 
L 188.199061 102.573513 
L 190.682487 103.57712 
L 193.165913 104.580727 
L 195.649339 105.584334 
L 198.132765 106.587941 
L 200.616191 107.591548 
L 203.099617 108.595155 
L 205.583043 109.598762 
L 208.066469 110.602369 
L 210.549895 111.605976 
L 213.033321 112.609583 
L 215.516747 113.61319 
L 218.000173 114.616797 
L 220.483599 115.620404 
L 222.967025 116.624011 
L 225.450451 117.627618 
L 227.933877 118.631225 
L 230.417303 119.634832 
L 232.900729 120.638439 
L 235.384155 121.642046 
L 237.867581 122.645653 
L 240.351007 123.64926 
L 242.834433 124.652867 
L 245.317859 125.656474 
L 247.801285 126.660081 
L 250.284711 127.663688 
L 252.768137 128.667295 
L 255.251563 129.670902 
L 257.734989 130.674509 
L 260.218416 131.678116 
L 262.701842 132.681723 
L 265.185268 133.68533 
L 267.668694 134.688937 
L 270.15212 135.692544 
L 272.635546 136.696151 
L 275.118972 137.699758 
L 277.602398 138.703365 
L 280.085824 139.706972 
L 282.56925 140.710579 
L 285.052676 141.714186 
L 287.536102 142.717793 
L 290.019528 143.7214 
L 292.502954 144.725007 
L 294.98638 145.728614 
L 297.469806 146.732221 
L 299.953232 147.735828 
L 302.436658 148.739435 
L 304.920084 149.743042 
L 307.40351 150.746649 
L 309.886936 151.750256 
L 312.370362 152.753863 
L 314.853788 153.75747 
L 317.337214 154.761077 
" clip-path="url(#pb33d5b0c92)" style="fill: none; stroke: #4c72b0; stroke-width: 3.375; stroke-linecap: round"/>
   </g>
   <g id="line2d_10">
    <path d="M 71.478037 50.627971 
L 73.961463 52.59068 
L 76.444889 54.553388 
L 78.928315 56.516097 
L 81.411741 58.478806 
L 83.895167 60.441515 
L 86.378593 62.404223 
L 88.862019 64.366932 
L 91.345445 66.329641 
L 93.828871 68.292349 
L 96.312297 70.255058 
L 98.795723 72.217767 
L 101.279149 74.180476 
L 103.762575 76.143184 
L 106.246001 78.105893 
L 108.729427 80.068602 
L 111.212854 82.03131 
L 113.69628 83.994019 
L 116.179706 85.956728 
L 118.663132 87.919436 
L 121.146558 89.882145 
L 123.629984 91.844854 
L 126.11341 93.807563 
L 128.596836 95.770271 
L 131.080262 97.73298 
L 133.563688 99.695689 
L 136.047114 101.658397 
L 138.53054 103.621106 
L 141.013966 105.583815 
L 143.497392 107.546524 
L 145.980818 109.509232 
L 148.464244 111.471941 
L 150.94767 113.43465 
L 153.431096 115.397358 
L 155.914522 117.360067 
L 158.397948 119.322776 
L 160.881374 121.285485 
L 163.3648 123.248193 
L 165.848226 125.210902 
L 168.331652 127.173611 
L 170.815078 129.136319 
L 173.298504 131.099028 
L 175.78193 133.061737 
L 178.265356 135.024445 
L 180.748782 136.987154 
L 183.232208 138.949863 
L 185.715635 140.912572 
L 188.199061 142.87528 
L 190.682487 144.837989 
L 193.165913 146.800698 
L 195.649339 148.763406 
L 198.132765 150.726115 
L 200.616191 152.688824 
L 203.099617 154.651533 
L 205.583043 156.614241 
L 208.066469 158.57695 
L 210.549895 160.539659 
L 213.033321 162.502367 
L 215.516747 164.465076 
L 218.000173 166.427785 
L 220.483599 168.390493 
L 222.967025 170.353202 
L 225.450451 172.315911 
L 227.933877 174.27862 
L 230.417303 176.241328 
L 232.900729 178.204037 
L 235.384155 180.166746 
L 237.867581 182.129454 
L 240.351007 184.092163 
L 242.834433 186.054872 
L 245.317859 188.017581 
L 247.801285 189.980289 
L 250.284711 191.942998 
L 252.768137 193.905707 
L 255.251563 195.868415 
L 257.734989 197.831124 
L 260.218416 199.793833 
L 262.701842 201.756541 
L 265.185268 203.71925 
L 267.668694 205.681959 
L 270.15212 207.644668 
L 272.635546 209.607376 
L 275.118972 211.570085 
L 277.602398 213.532794 
L 280.085824 215.495502 
L 282.56925 217.458211 
L 285.052676 219.42092 
L 287.536102 221.383629 
L 290.019528 223.346337 
L 292.502954 225.309046 
L 294.98638 227.271755 
L 297.469806 229.234463 
L 299.953232 231.197172 
L 302.436658 233.159881 
L 304.920084 235.122589 
L 307.40351 237.085298 
L 309.886936 239.048007 
L 312.370362 241.010716 
L 314.853788 242.973424 
L 317.337214 244.936133 
" clip-path="url(#pb33d5b0c92)" style="fill: none; stroke: #dd8452; stroke-width: 3.375; stroke-linecap: round"/>
   </g>
   <g id="patch_3">
    <path d="M 59.185078 280.86 
L 59.185078 7.2 
" style="fill: none; stroke: #ffffff; stroke-width: 1.875; stroke-linejoin: miter; stroke-linecap: square"/>
   </g>
   <g id="patch_4">
    <path d="M 59.185078 280.86 
L 329.630173 280.86 
" style="fill: none; stroke: #ffffff; stroke-width: 1.875; stroke-linejoin: miter; stroke-linecap: square"/>
   </g>
   <g id="text_11">
    <g id="patch_5">
     <path d="M 96.063955 64.374963 
L 245.381923 64.374963 
Q 249.881923 64.374963 249.881923 59.874963 
L 249.881923 46.156994 
Q 249.881923 41.656994 245.381923 41.656994 
L 96.063955 41.656994 
Q 91.563955 41.656994 91.563955 46.156994 
L 91.563955 59.874963 
Q 91.563955 64.374963 96.063955 64.374963 
z
" style="fill: #ffffff; opacity: 0.75; stroke: #ffffff; stroke-width: 1.5; stroke-linejoin: miter"/>
    </g>
    <!-- difference = 0.18±0.49 -->
    <g style="fill: #800080" transform="translate(96.063955 56.893713) scale(0.15 -0.15)">
     <defs>
      <path id="ArialMT-64" d="M 2575 0 
L 2575 419 
Q 2259 -75 1647 -75 
Q 1250 -75 917 144 
Q 584 363 401 755 
Q 219 1147 219 1656 
Q 219 2153 384 2558 
Q 550 2963 881 3178 
Q 1213 3394 1622 3394 
Q 1922 3394 2156 3267 
Q 2391 3141 2538 2938 
L 2538 4581 
L 3097 4581 
L 3097 0 
L 2575 0 
z
M 797 1656 
Q 797 1019 1065 703 
Q 1334 388 1700 388 
Q 2069 388 2326 689 
Q 2584 991 2584 1609 
Q 2584 2291 2321 2609 
Q 2059 2928 1675 2928 
Q 1300 2928 1048 2622 
Q 797 2316 797 1656 
z
" transform="scale(0.015625)"/>
      <path id="ArialMT-69" d="M 425 3934 
L 425 4581 
L 988 4581 
L 988 3934 
L 425 3934 
z
M 425 0 
L 425 3319 
L 988 3319 
L 988 0 
L 425 0 
z
" transform="scale(0.015625)"/>
      <path id="ArialMT-66" d="M 556 0 
L 556 2881 
L 59 2881 
L 59 3319 
L 556 3319 
L 556 3672 
Q 556 4006 616 4169 
Q 697 4388 901 4523 
Q 1106 4659 1475 4659 
Q 1713 4659 2000 4603 
L 1916 4113 
Q 1741 4144 1584 4144 
Q 1328 4144 1222 4034 
Q 1116 3925 1116 3625 
L 1116 3319 
L 1763 3319 
L 1763 2881 
L 1116 2881 
L 1116 0 
L 556 0 
z
" transform="scale(0.015625)"/>
      <path id="ArialMT-65" d="M 2694 1069 
L 3275 997 
Q 3138 488 2766 206 
Q 2394 -75 1816 -75 
Q 1088 -75 661 373 
Q 234 822 234 1631 
Q 234 2469 665 2931 
Q 1097 3394 1784 3394 
Q 2450 3394 2872 2941 
Q 3294 2488 3294 1666 
Q 3294 1616 3291 1516 
L 816 1516 
Q 847 969 1125 678 
Q 1403 388 1819 388 
Q 2128 388 2347 550 
Q 2566 713 2694 1069 
z
M 847 1978 
L 2700 1978 
Q 2663 2397 2488 2606 
Q 2219 2931 1791 2931 
Q 1403 2931 1139 2672 
Q 875 2413 847 1978 
z
" transform="scale(0.015625)"/>
      <path id="ArialMT-20" transform="scale(0.015625)"/>
      <path id="ArialMT-3d" d="M 3381 2694 
L 356 2694 
L 356 3219 
L 3381 3219 
L 3381 2694 
z
M 3381 1303 
L 356 1303 
L 356 1828 
L 3381 1828 
L 3381 1303 
z
" transform="scale(0.015625)"/>
      <path id="ArialMT-2e" d="M 581 0 
L 581 641 
L 1222 641 
L 1222 0 
L 581 0 
z
" transform="scale(0.015625)"/>
      <path id="ArialMT-31" d="M 2384 0 
L 1822 0 
L 1822 3584 
Q 1619 3391 1289 3197 
Q 959 3003 697 2906 
L 697 3450 
Q 1169 3672 1522 3987 
Q 1875 4303 2022 4600 
L 2384 4600 
L 2384 0 
z
" transform="scale(0.015625)"/>
      <path id="ArialMT-38" d="M 1131 2484 
Q 781 2613 612 2850 
Q 444 3088 444 3419 
Q 444 3919 803 4259 
Q 1163 4600 1759 4600 
Q 2359 4600 2725 4251 
Q 3091 3903 3091 3403 
Q 3091 3084 2923 2848 
Q 2756 2613 2416 2484 
Q 2838 2347 3058 2040 
Q 3278 1734 3278 1309 
Q 3278 722 2862 322 
Q 2447 -78 1769 -78 
Q 1091 -78 675 323 
Q 259 725 259 1325 
Q 259 1772 486 2073 
Q 713 2375 1131 2484 
z
M 1019 3438 
Q 1019 3113 1228 2906 
Q 1438 2700 1772 2700 
Q 2097 2700 2305 2904 
Q 2513 3109 2513 3406 
Q 2513 3716 2298 3927 
Q 2084 4138 1766 4138 
Q 1444 4138 1231 3931 
Q 1019 3725 1019 3438 
z
M 838 1322 
Q 838 1081 952 856 
Q 1066 631 1291 507 
Q 1516 384 1775 384 
Q 2178 384 2440 643 
Q 2703 903 2703 1303 
Q 2703 1709 2433 1975 
Q 2163 2241 1756 2241 
Q 1359 2241 1098 1978 
Q 838 1716 838 1322 
z
" transform="scale(0.015625)"/>
      <path id="ArialMT-b1" d="M 1491 813 
L 1491 2072 
L 244 2072 
L 244 2594 
L 1491 2594 
L 1491 3841 
L 2022 3841 
L 2022 2594 
L 3269 2594 
L 3269 2072 
L 2022 2072 
L 2022 813 
L 1491 813 
z
M 3269 0 
L 244 0 
L 244 525 
L 3269 525 
L 3269 0 
z
" transform="scale(0.015625)"/>
      <path id="ArialMT-39" d="M 350 1059 
L 891 1109 
Q 959 728 1153 556 
Q 1347 384 1650 384 
Q 1909 384 2104 503 
Q 2300 622 2425 820 
Q 2550 1019 2634 1356 
Q 2719 1694 2719 2044 
Q 2719 2081 2716 2156 
Q 2547 1888 2255 1720 
Q 1963 1553 1622 1553 
Q 1053 1553 659 1965 
Q 266 2378 266 3053 
Q 266 3750 677 4175 
Q 1088 4600 1706 4600 
Q 2153 4600 2523 4359 
Q 2894 4119 3086 3673 
Q 3278 3228 3278 2384 
Q 3278 1506 3087 986 
Q 2897 466 2520 194 
Q 2144 -78 1638 -78 
Q 1100 -78 759 220 
Q 419 519 350 1059 
z
M 2653 3081 
Q 2653 3566 2395 3850 
Q 2138 4134 1775 4134 
Q 1400 4134 1122 3828 
Q 844 3522 844 3034 
Q 844 2597 1108 2323 
Q 1372 2050 1759 2050 
Q 2150 2050 2401 2323 
Q 2653 2597 2653 3081 
z
" transform="scale(0.015625)"/>
     </defs>
     <use xlink:href="#ArialMT-64"/>
     <use xlink:href="#ArialMT-69" x="55.615234"/>
     <use xlink:href="#ArialMT-66" x="77.832031"/>
     <use xlink:href="#ArialMT-66" x="103.865234"/>
     <use xlink:href="#ArialMT-65" x="131.648438"/>
     <use xlink:href="#ArialMT-72" x="187.263672"/>
     <use xlink:href="#ArialMT-65" x="220.564453"/>
     <use xlink:href="#ArialMT-6e" x="276.179688"/>
     <use xlink:href="#ArialMT-63" x="331.794922"/>
     <use xlink:href="#ArialMT-65" x="381.794922"/>
     <use xlink:href="#ArialMT-20" x="437.410156"/>
     <use xlink:href="#ArialMT-3d" x="465.193359"/>
     <use xlink:href="#ArialMT-20" x="523.591797"/>
     <use xlink:href="#ArialMT-30" x="551.375"/>
     <use xlink:href="#ArialMT-2e" x="606.990234"/>
     <use xlink:href="#ArialMT-31" x="634.773438"/>
     <use xlink:href="#ArialMT-38" x="690.388672"/>
     <use xlink:href="#ArialMT-b1" x="746.003906"/>
     <use xlink:href="#ArialMT-30" x="800.886719"/>
     <use xlink:href="#ArialMT-2e" x="856.501953"/>
     <use xlink:href="#ArialMT-34" x="884.285156"/>
     <use xlink:href="#ArialMT-39" x="939.900391"/>
    </g>
   </g>
  </g>
  <g id="legend_1">
   <g id="text_12">
    <!-- drug -->
    <g style="fill: #262626" transform="translate(341.799715 149.263711) scale(0.18 -0.18)">
     <use xlink:href="#ArialMT-64"/>
     <use xlink:href="#ArialMT-72" x="55.615234"/>
     <use xlink:href="#ArialMT-75" x="88.916016"/>
     <use xlink:href="#ArialMT-67" x="144.53125"/>
    </g>
   </g>
   <g id="PathCollection_3">
    <g>
     <use xlink:href="#m38c3877a34" x="347.707957" y="168.781289" style="fill: #4c72b0; fill-opacity: 0.8; stroke: #4c72b0; stroke-opacity: 0.8"/>
    </g>
   </g>
   <g id="text_13">
    <!-- A -->
    <g style="fill: #262626" transform="translate(377.407957 173.112539) scale(0.165 -0.165)">
     <defs>
      <path id="ArialMT-41" d="M -9 0 
L 1750 4581 
L 2403 4581 
L 4278 0 
L 3588 0 
L 3053 1388 
L 1138 1388 
L 634 0 
L -9 0 
z
M 1313 1881 
L 2866 1881 
L 2388 3150 
Q 2169 3728 2063 4100 
Q 1975 3659 1816 3225 
L 1313 1881 
z
" transform="scale(0.015625)"/>
     </defs>
     <use xlink:href="#ArialMT-41"/>
    </g>
   </g>
   <g id="PathCollection_4">
    <g>
     <use xlink:href="#m2a2634362e" x="347.707957" y="192.121055" style="fill: #dd8452; fill-opacity: 0.8; stroke: #dd8452; stroke-opacity: 0.8"/>
    </g>
   </g>
   <g id="text_14">
    <!-- B -->
    <g style="fill: #262626" transform="translate(377.407957 196.452305) scale(0.165 -0.165)">
     <defs>
      <path id="ArialMT-42" d="M 469 0 
L 469 4581 
L 2188 4581 
Q 2713 4581 3030 4442 
Q 3347 4303 3526 4014 
Q 3706 3725 3706 3409 
Q 3706 3116 3547 2856 
Q 3388 2597 3066 2438 
Q 3481 2316 3704 2022 
Q 3928 1728 3928 1328 
Q 3928 1006 3792 729 
Q 3656 453 3456 303 
Q 3256 153 2954 76 
Q 2653 0 2216 0 
L 469 0 
z
M 1075 2656 
L 2066 2656 
Q 2469 2656 2644 2709 
Q 2875 2778 2992 2937 
Q 3109 3097 3109 3338 
Q 3109 3566 3000 3739 
Q 2891 3913 2687 3977 
Q 2484 4041 1991 4041 
L 1075 4041 
L 1075 2656 
z
M 1075 541 
L 2216 541 
Q 2509 541 2628 563 
Q 2838 600 2978 687 
Q 3119 775 3209 942 
Q 3300 1109 3300 1328 
Q 3300 1584 3169 1773 
Q 3038 1963 2805 2039 
Q 2572 2116 2134 2116 
L 1075 2116 
L 1075 541 
z
" transform="scale(0.015625)"/>
     </defs>
     <use xlink:href="#ArialMT-42"/>
    </g>
   </g>
  </g>
 </g>
 <defs>
  <clipPath id="pb33d5b0c92">
   <rect x="59.185078" y="7.2" width="270.445095" height="273.66"/>
  </clipPath>
 </defs>
</svg>
