<?xml version="1.0" encoding="utf-8" standalone="no"?>
<!DOCTYPE svg PUBLIC "-//W3C//DTD SVG 1.1//EN"
  "http://www.w3.org/Graphics/SVG/1.1/DTD/svg11.dtd">
<svg xmlns:xlink="http://www.w3.org/1999/xlink" width="403.263973pt" height="336.111328pt" viewBox="0 0 403.263973 336.111328" xmlns="http://www.w3.org/2000/svg" version="1.1">
 <metadata>
  <rdf:RDF xmlns:dc="http://purl.org/dc/elements/1.1/" xmlns:cc="http://creativecommons.org/ns#" xmlns:rdf="http://www.w3.org/1999/02/22-rdf-syntax-ns#">
   <cc:Work>
    <dc:type rdf:resource="http://purl.org/dc/dcmitype/StillImage"/>
    <dc:date>2025-09-28T10:07:56.367356</dc:date>
    <dc:format>image/svg+xml</dc:format>
    <dc:creator>
     <cc:Agent>
      <dc:title>Matplotlib v3.8.0, https://matplotlib.org/</dc:title>
     </cc:Agent>
    </dc:creator>
   </cc:Work>
  </rdf:RDF>
 </metadata>
 <defs>
  <style type="text/css">*{stroke-linejoin: round; stroke-linecap: butt}</style>
 </defs>
 <g id="figure_1">
  <g id="patch_1">
   <path d="M 0 336.111328 
L 403.263973 336.111328 
L 403.263973 0 
L 0 0 
z
" style="fill: #ffffff"/>
  </g>
  <g id="axes_1">
   <g id="patch_2">
    <path d="M 59.185078 280.86 
L 329.630173 280.86 
L 329.630173 7.2 
L 59.185078 7.2 
z
" style="fill: #eaeaf2"/>
   </g>
   <g id="matplotlib.axis_1">
    <g id="xtick_1">
     <g id="line2d_1">
      <path d="M 71.478037 280.86 
L 71.478037 7.2 
" clip-path="url(#p3791a179d6)" style="fill: none; stroke: #ffffff; stroke-width: 1.5; stroke-linecap: round"/>
     </g>
     <g id="text_1">
      <!-- 0 -->
      <g style="fill: #262626" transform="translate(66.890264 305.170391) scale(0.165 -0.165)">
       <defs>
        <path id="ArialMT-30" d="M 266 2259 
Q 266 3072 433 3567 
Q 600 4063 929 4331 
Q 1259 4600 1759 4600 
Q 2128 4600 2406 4451 
Q 2684 4303 2865 4023 
Q 3047 3744 3150 3342 
Q 3253 2941 3253 2259 
Q 3253 1453 3087 958 
Q 2922 463 2592 192 
Q 2263 -78 1759 -78 
Q 1097 -78 719 397 
Q 266 969 266 2259 
z
M 844 2259 
Q 844 1131 1108 757 
Q 1372 384 1759 384 
Q 2147 384 2411 759 
Q 2675 1134 2675 2259 
Q 2675 3391 2411 3762 
Q 2147 4134 1753 4134 
Q 1366 4134 1134 3806 
Q 844 3388 844 2259 
z
" transform="scale(0.015625)"/>
       </defs>
       <use xlink:href="#ArialMT-30"/>
      </g>
     </g>
    </g>
    <g id="xtick_2">
     <g id="line2d_2">
      <path d="M 169.821708 280.86 
L 169.821708 7.2 
" clip-path="url(#p3791a179d6)" style="fill: none; stroke: #ffffff; stroke-width: 1.5; stroke-linecap: round"/>
     </g>
     <g id="text_2">
      <!-- 2 -->
      <g style="fill: #262626" transform="translate(165.233934 305.170391) scale(0.165 -0.165)">
       <defs>
        <path id="ArialMT-32" d="M 3222 541 
L 3222 0 
L 194 0 
Q 188 203 259 391 
Q 375 700 629 1000 
Q 884 1300 1366 1694 
Q 2113 2306 2375 2664 
Q 2638 3022 2638 3341 
Q 2638 3675 2398 3904 
Q 2159 4134 1775 4134 
Q 1369 4134 1125 3890 
Q 881 3647 878 3216 
L 300 3275 
Q 359 3922 746 4261 
Q 1134 4600 1788 4600 
Q 2447 4600 2831 4234 
Q 3216 3869 3216 3328 
Q 3216 3053 3103 2787 
Q 2991 2522 2730 2228 
Q 2469 1934 1863 1422 
Q 1356 997 1212 845 
Q 1069 694 975 541 
L 3222 541 
z
" transform="scale(0.015625)"/>
       </defs>
       <use xlink:href="#ArialMT-32"/>
      </g>
     </g>
    </g>
    <g id="xtick_3">
     <g id="line2d_3">
      <path d="M 268.165379 280.86 
L 268.165379 7.2 
" clip-path="url(#p3791a179d6)" style="fill: none; stroke: #ffffff; stroke-width: 1.5; stroke-linecap: round"/>
     </g>
     <g id="text_3">
      <!-- 4 -->
      <g style="fill: #262626" transform="translate(263.577605 305.170391) scale(0.165 -0.165)">
       <defs>
        <path id="ArialMT-34" d="M 2069 0 
L 2069 1097 
L 81 1097 
L 81 1613 
L 2172 4581 
L 2631 4581 
L 2631 1613 
L 3250 1613 
L 3250 1097 
L 2631 1097 
L 2631 0 
L 2069 0 
z
M 2069 1613 
L 2069 3678 
L 634 1613 
L 2069 1613 
z
" transform="scale(0.015625)"/>
       </defs>
       <use xlink:href="#ArialMT-34"/>
      </g>
     </g>
    </g>
    <g id="text_4">
     <!-- hour -->
     <g style="fill: #262626" transform="translate(176.396376 325.333828) scale(0.18 -0.18)">
      <defs>
       <path id="ArialMT-68" d="M 422 0 
L 422 4581 
L 984 4581 
L 984 2938 
Q 1378 3394 1978 3394 
Q 2347 3394 2619 3248 
Q 2891 3103 3008 2847 
Q 3125 2591 3125 2103 
L 3125 0 
L 2563 0 
L 2563 2103 
Q 2563 2525 2380 2717 
Q 2197 2909 1863 2909 
Q 1613 2909 1392 2779 
Q 1172 2650 1078 2428 
Q 984 2206 984 1816 
L 984 0 
L 422 0 
z
" transform="scale(0.015625)"/>
       <path id="ArialMT-6f" d="M 213 1659 
Q 213 2581 725 3025 
Q 1153 3394 1769 3394 
Q 2453 3394 2887 2945 
Q 3322 2497 3322 1706 
Q 3322 1066 3130 698 
Q 2938 331 2570 128 
Q 2203 -75 1769 -75 
Q 1072 -75 642 372 
Q 213 819 213 1659 
z
M 791 1659 
Q 791 1022 1069 705 
Q 1347 388 1769 388 
Q 2188 388 2466 706 
Q 2744 1025 2744 1678 
Q 2744 2294 2464 2611 
Q 2184 2928 1769 2928 
Q 1347 2928 1069 2612 
Q 791 2297 791 1659 
z
" transform="scale(0.015625)"/>
       <path id="ArialMT-75" d="M 2597 0 
L 2597 488 
Q 2209 -75 1544 -75 
Q 1250 -75 995 37 
Q 741 150 617 320 
Q 494 491 444 738 
Q 409 903 409 1263 
L 409 3319 
L 972 3319 
L 972 1478 
Q 972 1038 1006 884 
Q 1059 663 1231 536 
Q 1403 409 1656 409 
Q 1909 409 2131 539 
Q 2353 669 2445 892 
Q 2538 1116 2538 1541 
L 2538 3319 
L 3100 3319 
L 3100 0 
L 2597 0 
z
" transform="scale(0.015625)"/>
       <path id="ArialMT-72" d="M 416 0 
L 416 3319 
L 922 3319 
L 922 2816 
Q 1116 3169 1280 3281 
Q 1444 3394 1641 3394 
Q 1925 3394 2219 3213 
L 2025 2691 
Q 1819 2813 1613 2813 
Q 1428 2813 1281 2702 
Q 1134 2591 1072 2394 
Q 978 2094 978 1738 
L 978 0 
L 416 0 
z
" transform="scale(0.015625)"/>
      </defs>
      <use xlink:href="#ArialMT-68"/>
      <use xlink:href="#ArialMT-6f" x="55.615234"/>
      <use xlink:href="#ArialMT-75" x="111.230469"/>
      <use xlink:href="#ArialMT-72" x="166.845703"/>
     </g>
    </g>
   </g>
   <g id="matplotlib.axis_2">
    <g id="ytick_1">
     <g id="line2d_4">
      <path d="M 59.185078 266.986593 
L 329.630173 266.986593 
" clip-path="url(#p3791a179d6)" style="fill: none; stroke: #ffffff; stroke-width: 1.5; stroke-linecap: round"/>
     </g>
     <g id="text_5">
      <!-- −4 -->
      <g style="fill: #262626" transform="translate(27.8725 272.891789) scale(0.165 -0.165)">
       <defs>
        <path id="ArialMT-2212" d="M 3381 1997 
L 356 1997 
L 356 2522 
L 3381 2522 
L 3381 1997 
z
" transform="scale(0.015625)"/>
       </defs>
       <use xlink:href="#ArialMT-2212"/>
       <use xlink:href="#ArialMT-34" x="58.398438"/>
      </g>
     </g>
    </g>
    <g id="ytick_2">
     <g id="line2d_5">
      <path d="M 59.185078 213.268648 
L 329.630173 213.268648 
" clip-path="url(#p3791a179d6)" style="fill: none; stroke: #ffffff; stroke-width: 1.5; stroke-linecap: round"/>
     </g>
     <g id="text_6">
      <!-- −2 -->
      <g style="fill: #262626" transform="translate(27.8725 219.173843) scale(0.165 -0.165)">
       <use xlink:href="#ArialMT-2212"/>
       <use xlink:href="#ArialMT-32" x="58.398438"/>
      </g>
     </g>
    </g>
    <g id="ytick_3">
     <g id="line2d_6">
      <path d="M 59.185078 159.550702 
L 329.630173 159.550702 
" clip-path="url(#p3791a179d6)" style="fill: none; stroke: #ffffff; stroke-width: 1.5; stroke-linecap: round"/>
     </g>
     <g id="text_7">
      <!-- 0 -->
      <g style="fill: #262626" transform="translate(37.509531 165.455898) scale(0.165 -0.165)">
       <use xlink:href="#ArialMT-30"/>
      </g>
     </g>
    </g>
    <g id="ytick_4">
     <g id="line2d_7">
      <path d="M 59.185078 105.832757 
L 329.630173 105.832757 
" clip-path="url(#p3791a179d6)" style="fill: none; stroke: #ffffff; stroke-width: 1.5; stroke-linecap: round"/>
     </g>
     <g id="text_8">
      <!-- 2 -->
      <g style="fill: #262626" transform="translate(37.509531 111.737952) scale(0.165 -0.165)">
       <use xlink:href="#ArialMT-32"/>
      </g>
     </g>
    </g>
    <g id="ytick_5">
     <g id="line2d_8">
      <path d="M 59.185078 52.114811 
L 329.630173 52.114811 
" clip-path="url(#p3791a179d6)" style="fill: none; stroke: #ffffff; stroke-width: 1.5; stroke-linecap: round"/>
     </g>
     <g id="text_9">
      <!-- 4 -->
      <g style="fill: #262626" transform="translate(37.509531 58.020006) scale(0.165 -0.165)">
       <use xlink:href="#ArialMT-34"/>
      </g>
     </g>
    </g>
    <g id="text_10">
     <!-- log_conc -->
     <g style="fill: #262626" transform="translate(20.084062 180.053906) rotate(-90) scale(0.18 -0.18)">
      <defs>
       <path id="ArialMT-6c" d="M 409 0 
L 409 4581 
L 972 4581 
L 972 0 
L 409 0 
z
" transform="scale(0.015625)"/>
       <path id="ArialMT-67" d="M 319 -275 
L 866 -356 
Q 900 -609 1056 -725 
Q 1266 -881 1628 -881 
Q 2019 -881 2231 -725 
Q 2444 -569 2519 -288 
Q 2563 -116 2559 434 
Q 2191 0 1641 0 
Q 956 0 581 494 
Q 206 988 206 1678 
Q 206 2153 378 2554 
Q 550 2956 876 3175 
Q 1203 3394 1644 3394 
Q 2231 3394 2613 2919 
L 2613 3319 
L 3131 3319 
L 3131 450 
Q 3131 -325 2973 -648 
Q 2816 -972 2473 -1159 
Q 2131 -1347 1631 -1347 
Q 1038 -1347 672 -1080 
Q 306 -813 319 -275 
z
M 784 1719 
Q 784 1066 1043 766 
Q 1303 466 1694 466 
Q 2081 466 2343 764 
Q 2606 1063 2606 1700 
Q 2606 2309 2336 2618 
Q 2066 2928 1684 2928 
Q 1309 2928 1046 2623 
Q 784 2319 784 1719 
z
" transform="scale(0.015625)"/>
       <path id="ArialMT-5f" d="M -97 -1272 
L -97 -866 
L 3631 -866 
L 3631 -1272 
L -97 -1272 
z
" transform="scale(0.015625)"/>
       <path id="ArialMT-63" d="M 2588 1216 
L 3141 1144 
Q 3050 572 2676 248 
Q 2303 -75 1759 -75 
Q 1078 -75 664 370 
Q 250 816 250 1647 
Q 250 2184 428 2587 
Q 606 2991 970 3192 
Q 1334 3394 1763 3394 
Q 2303 3394 2647 3120 
Q 2991 2847 3088 2344 
L 2541 2259 
Q 2463 2594 2264 2762 
Q 2066 2931 1784 2931 
Q 1359 2931 1093 2626 
Q 828 2322 828 1663 
Q 828 994 1084 691 
Q 1341 388 1753 388 
Q 2084 388 2306 591 
Q 2528 794 2588 1216 
z
" transform="scale(0.015625)"/>
       <path id="ArialMT-6e" d="M 422 0 
L 422 3319 
L 928 3319 
L 928 2847 
Q 1294 3394 1984 3394 
Q 2284 3394 2536 3286 
Q 2788 3178 2913 3003 
Q 3038 2828 3088 2588 
Q 3119 2431 3119 2041 
L 3119 0 
L 2556 0 
L 2556 2019 
Q 2556 2363 2490 2533 
Q 2425 2703 2258 2804 
Q 2091 2906 1866 2906 
Q 1506 2906 1245 2678 
Q 984 2450 984 1813 
L 984 0 
L 422 0 
z
" transform="scale(0.015625)"/>
      </defs>
      <use xlink:href="#ArialMT-6c"/>
      <use xlink:href="#ArialMT-6f" x="22.216797"/>
      <use xlink:href="#ArialMT-67" x="77.832031"/>
      <use xlink:href="#ArialMT-5f" x="133.447266"/>
      <use xlink:href="#ArialMT-63" x="189.0625"/>
      <use xlink:href="#ArialMT-6f" x="239.0625"/>
      <use xlink:href="#ArialMT-6e" x="294.677734"/>
      <use xlink:href="#ArialMT-63" x="350.292969"/>
     </g>
    </g>
   </g>
   <g id="PathCollection_1">
    <defs>
     <path id="m209cb2fcaa" d="M 0 4.5 
C 1.193414 4.5 2.338109 4.025852 3.181981 3.181981 
C 4.025852 2.338109 4.5 1.193414 4.5 0 
C 4.5 -1.193414 4.025852 -2.338109 3.181981 -3.181981 
C 2.338109 -4.025852 1.193414 -4.5 0 -4.5 
C -1.193414 -4.5 -2.338109 -4.025852 -3.181981 -3.181981 
C -4.025852 -2.338109 -4.5 -1.193414 -4.5 0 
C -4.5 1.193414 -4.025852 2.338109 -3.181981 3.181981 
C -2.338109 4.025852 -1.193414 4.5 0 4.5 
z
" style="stroke: #4c72b0; stroke-opacity: 0.8"/>
    </defs>
    <g clip-path="url(#p3791a179d6)">
     <use xlink:href="#m209cb2fcaa" x="71.478037" y="21.692616" style="fill: #4c72b0; fill-opacity: 0.8; stroke: #4c72b0; stroke-opacity: 0.8"/>
     <use xlink:href="#m209cb2fcaa" x="120.649872" y="113.068751" style="fill: #4c72b0; fill-opacity: 0.8; stroke: #4c72b0; stroke-opacity: 0.8"/>
     <use xlink:href="#m209cb2fcaa" x="169.821708" y="119.398565" style="fill: #4c72b0; fill-opacity: 0.8; stroke: #4c72b0; stroke-opacity: 0.8"/>
     <use xlink:href="#m209cb2fcaa" x="218.993543" y="122.722197" style="fill: #4c72b0; fill-opacity: 0.8; stroke: #4c72b0; stroke-opacity: 0.8"/>
     <use xlink:href="#m209cb2fcaa" x="268.165379" y="128.571131" style="fill: #4c72b0; fill-opacity: 0.8; stroke: #4c72b0; stroke-opacity: 0.8"/>
     <use xlink:href="#m209cb2fcaa" x="317.337214" y="149.039009" style="fill: #4c72b0; fill-opacity: 0.8; stroke: #4c72b0; stroke-opacity: 0.8"/>
     <use xlink:href="#m209cb2fcaa" x="71.478037" y="19.639091" style="fill: #4c72b0; fill-opacity: 0.8; stroke: #4c72b0; stroke-opacity: 0.8"/>
     <use xlink:href="#m209cb2fcaa" x="120.649872" y="88.637655" style="fill: #4c72b0; fill-opacity: 0.8; stroke: #4c72b0; stroke-opacity: 0.8"/>
     <use xlink:href="#m209cb2fcaa" x="169.821708" y="122.082266" style="fill: #4c72b0; fill-opacity: 0.8; stroke: #4c72b0; stroke-opacity: 0.8"/>
     <use xlink:href="#m209cb2fcaa" x="218.993543" y="82.207829" style="fill: #4c72b0; fill-opacity: 0.8; stroke: #4c72b0; stroke-opacity: 0.8"/>
     <use xlink:href="#m209cb2fcaa" x="268.165379" y="159.766438" style="fill: #4c72b0; fill-opacity: 0.8; stroke: #4c72b0; stroke-opacity: 0.8"/>
     <use xlink:href="#m209cb2fcaa" x="317.337214" y="144.154148" style="fill: #4c72b0; fill-opacity: 0.8; stroke: #4c72b0; stroke-opacity: 0.8"/>
     <use xlink:href="#m209cb2fcaa" x="71.478037" y="59.586806" style="fill: #4c72b0; fill-opacity: 0.8; stroke: #4c72b0; stroke-opacity: 0.8"/>
     <use xlink:href="#m209cb2fcaa" x="120.649872" y="56.402131" style="fill: #4c72b0; fill-opacity: 0.8; stroke: #4c72b0; stroke-opacity: 0.8"/>
     <use xlink:href="#m209cb2fcaa" x="169.821708" y="108.413985" style="fill: #4c72b0; fill-opacity: 0.8; stroke: #4c72b0; stroke-opacity: 0.8"/>
     <use xlink:href="#m209cb2fcaa" x="218.993543" y="133.773252" style="fill: #4c72b0; fill-opacity: 0.8; stroke: #4c72b0; stroke-opacity: 0.8"/>
     <use xlink:href="#m209cb2fcaa" x="268.165379" y="164.074254" style="fill: #4c72b0; fill-opacity: 0.8; stroke: #4c72b0; stroke-opacity: 0.8"/>
     <use xlink:href="#m209cb2fcaa" x="317.337214" y="114.869532" style="fill: #4c72b0; fill-opacity: 0.8; stroke: #4c72b0; stroke-opacity: 0.8"/>
     <use xlink:href="#m209cb2fcaa" x="71.478037" y="44.27109" style="fill: #4c72b0; fill-opacity: 0.8; stroke: #4c72b0; stroke-opacity: 0.8"/>
     <use xlink:href="#m209cb2fcaa" x="120.649872" y="59.068168" style="fill: #4c72b0; fill-opacity: 0.8; stroke: #4c72b0; stroke-opacity: 0.8"/>
     <use xlink:href="#m209cb2fcaa" x="169.821708" y="123.552953" style="fill: #4c72b0; fill-opacity: 0.8; stroke: #4c72b0; stroke-opacity: 0.8"/>
     <use xlink:href="#m209cb2fcaa" x="218.993543" y="124.207735" style="fill: #4c72b0; fill-opacity: 0.8; stroke: #4c72b0; stroke-opacity: 0.8"/>
     <use xlink:href="#m209cb2fcaa" x="268.165379" y="89.228582" style="fill: #4c72b0; fill-opacity: 0.8; stroke: #4c72b0; stroke-opacity: 0.8"/>
     <use xlink:href="#m209cb2fcaa" x="317.337214" y="134.031662" style="fill: #4c72b0; fill-opacity: 0.8; stroke: #4c72b0; stroke-opacity: 0.8"/>
     <use xlink:href="#m209cb2fcaa" x="71.478037" y="67.74703" style="fill: #4c72b0; fill-opacity: 0.8; stroke: #4c72b0; stroke-opacity: 0.8"/>
     <use xlink:href="#m209cb2fcaa" x="120.649872" y="31.643373" style="fill: #4c72b0; fill-opacity: 0.8; stroke: #4c72b0; stroke-opacity: 0.8"/>
     <use xlink:href="#m209cb2fcaa" x="169.821708" y="121.515822" style="fill: #4c72b0; fill-opacity: 0.8; stroke: #4c72b0; stroke-opacity: 0.8"/>
     <use xlink:href="#m209cb2fcaa" x="218.993543" y="150.189223" style="fill: #4c72b0; fill-opacity: 0.8; stroke: #4c72b0; stroke-opacity: 0.8"/>
     <use xlink:href="#m209cb2fcaa" x="268.165379" y="128.554185" style="fill: #4c72b0; fill-opacity: 0.8; stroke: #4c72b0; stroke-opacity: 0.8"/>
     <use xlink:href="#m209cb2fcaa" x="317.337214" y="169.71243" style="fill: #4c72b0; fill-opacity: 0.8; stroke: #4c72b0; stroke-opacity: 0.8"/>
    </g>
   </g>
   <g id="PolyCollection_1">
    <defs>
     <path id="m350188f500" d="M 71.478037 -295.723557 
L 71.478037 -262.095453 
L 73.961463 -261.331482 
L 76.444889 -260.576832 
L 78.928315 -259.800469 
L 81.411741 -259.032053 
L 83.895167 -258.263638 
L 86.378593 -257.495222 
L 88.862019 -256.731665 
L 91.345445 -255.968132 
L 93.828871 -255.204598 
L 96.312297 -254.494214 
L 98.795723 -253.672367 
L 101.279149 -252.809234 
L 103.762575 -251.923308 
L 106.246001 -251.224276 
L 108.729427 -250.525386 
L 111.212854 -249.832688 
L 113.69628 -249.071112 
L 116.179706 -248.309537 
L 118.663132 -247.543293 
L 121.146558 -246.703852 
L 123.629984 -245.851951 
L 126.11341 -245.000051 
L 128.596836 -244.150105 
L 131.080262 -243.303482 
L 133.563688 -242.486982 
L 136.047114 -241.788294 
L 138.53054 -241.092444 
L 141.013966 -240.331906 
L 143.497392 -239.520709 
L 145.980818 -238.702012 
L 148.464244 -237.921431 
L 150.94767 -237.093881 
L 153.431096 -236.205226 
L 155.914522 -235.309898 
L 158.397948 -234.35158 
L 160.881374 -233.38622 
L 163.3648 -232.424383 
L 165.848226 -231.487986 
L 168.331652 -230.743514 
L 170.815078 -229.873412 
L 173.298504 -228.992995 
L 175.78193 -228.11504 
L 178.265356 -227.349175 
L 180.748782 -226.296358 
L 183.232208 -225.445613 
L 185.715635 -224.587922 
L 188.199061 -223.508941 
L 190.682487 -222.715742 
L 193.165913 -221.571147 
L 195.649339 -220.450008 
L 198.132765 -219.387254 
L 200.616191 -218.31106 
L 203.099617 -217.151742 
L 205.583043 -215.962578 
L 208.066469 -214.80887 
L 210.549895 -213.942509 
L 213.033321 -212.942695 
L 215.516747 -211.978002 
L 218.000173 -211.105969 
L 220.483599 -210.028273 
L 222.967025 -208.900698 
L 225.450451 -207.905869 
L 227.933877 -206.748264 
L 230.417303 -205.523283 
L 232.900729 -204.393869 
L 235.384155 -203.269819 
L 237.867581 -202.233513 
L 240.351007 -201.082253 
L 242.834433 -199.915823 
L 245.317859 -198.761182 
L 247.801285 -197.61277 
L 250.284711 -196.408658 
L 252.768137 -195.192515 
L 255.251563 -193.850177 
L 257.734989 -192.513459 
L 260.218416 -191.176764 
L 262.701842 -189.948744 
L 265.185268 -188.806141 
L 267.668694 -187.628332 
L 270.15212 -186.454477 
L 272.635546 -185.285718 
L 275.118972 -184.116959 
L 277.602398 -182.942034 
L 280.085824 -181.765077 
L 282.56925 -180.588121 
L 285.052676 -179.411165 
L 287.536102 -178.208268 
L 290.019528 -176.916622 
L 292.502954 -175.624976 
L 294.98638 -174.33333 
L 297.469806 -173.098141 
L 299.953232 -171.948603 
L 302.436658 -170.799064 
L 304.920084 -169.519697 
L 307.40351 -168.214672 
L 309.886936 -166.90635 
L 312.370362 -165.629422 
L 314.853788 -164.481185 
L 317.337214 -163.332949 
L 317.337214 -196.422725 
L 317.337214 -196.422725 
L 314.853788 -197.284225 
L 312.370362 -198.132206 
L 309.886936 -198.842788 
L 307.40351 -199.651147 
L 304.920084 -200.454772 
L 302.436658 -201.222548 
L 299.953232 -201.882005 
L 297.469806 -202.542762 
L 294.98638 -203.201192 
L 292.502954 -203.981149 
L 290.019528 -204.77532 
L 287.536102 -205.562181 
L 285.052676 -206.352218 
L 282.56925 -207.280674 
L 280.085824 -208.304451 
L 277.602398 -209.248425 
L 275.118972 -210.071086 
L 272.635546 -210.944591 
L 270.15212 -211.572489 
L 267.668694 -212.282106 
L 265.185268 -213.080173 
L 262.701842 -213.860345 
L 260.218416 -214.755664 
L 257.734989 -215.623796 
L 255.251563 -216.478964 
L 252.768137 -217.401707 
L 250.284711 -218.350802 
L 247.801285 -219.238633 
L 245.317859 -220.082115 
L 242.834433 -221.047981 
L 240.351007 -221.948643 
L 237.867581 -222.954238 
L 235.384155 -223.905217 
L 232.900729 -224.700701 
L 230.417303 -225.597167 
L 227.933877 -226.481826 
L 225.450451 -227.453452 
L 222.967025 -228.425081 
L 220.483599 -229.397558 
L 218.000173 -230.371821 
L 215.516747 -231.433162 
L 213.033321 -232.391566 
L 210.549895 -233.416786 
L 208.066469 -234.410907 
L 205.583043 -235.422036 
L 203.099617 -236.430167 
L 200.616191 -237.349639 
L 198.132765 -238.447979 
L 195.649339 -239.458397 
L 193.165913 -240.49629 
L 190.682487 -241.587936 
L 188.199061 -242.645182 
L 185.715635 -243.633138 
L 183.232208 -244.693952 
L 180.748782 -245.737532 
L 178.265356 -246.802059 
L 175.78193 -247.733877 
L 173.298504 -248.780972 
L 170.815078 -249.841324 
L 168.331652 -250.937126 
L 165.848226 -252.061894 
L 163.3648 -253.18362 
L 160.881374 -254.213386 
L 158.397948 -255.244532 
L 155.914522 -256.388804 
L 153.431096 -257.597501 
L 150.94767 -258.802481 
L 148.464244 -259.929568 
L 145.980818 -261.052912 
L 143.497392 -262.182547 
L 141.013966 -263.374646 
L 138.53054 -264.5168 
L 136.047114 -265.610474 
L 133.563688 -266.702282 
L 131.080262 -267.878901 
L 128.596836 -268.979374 
L 126.11341 -270.123339 
L 123.629984 -271.267032 
L 121.146558 -272.431495 
L 118.663132 -273.590332 
L 116.179706 -274.743636 
L 113.69628 -275.896074 
L 111.212854 -277.130463 
L 108.729427 -278.322401 
L 106.246001 -279.374935 
L 103.762575 -280.519905 
L 101.279149 -281.674049 
L 98.795723 -282.829342 
L 96.312297 -283.939425 
L 93.828871 -285.02485 
L 91.345445 -286.152621 
L 88.862019 -287.374397 
L 86.378593 -288.604558 
L 83.895167 -289.760106 
L 81.411741 -290.915654 
L 78.928315 -292.071202 
L 76.444889 -293.376897 
L 73.961463 -294.54234 
L 71.478037 -295.723557 
z
" style="stroke: #ffffff; stroke-opacity: 0.15; stroke-width: 1.5"/>
    </defs>
    <g clip-path="url(#p3791a179d6)">
     <use xlink:href="#m350188f500" x="0" y="336.111328" style="fill: #4c72b0; fill-opacity: 0.15; stroke: #ffffff; stroke-opacity: 0.15; stroke-width: 1.5"/>
    </g>
   </g>
   <g id="PathCollection_2">
    <defs>
     <path id="m85b5ac11bf" d="M 0 4.5 
C 1.193414 4.5 2.338109 4.025852 3.181981 3.181981 
C 4.025852 2.338109 4.5 1.193414 4.5 0 
C 4.5 -1.193414 4.025852 -2.338109 3.181981 -3.181981 
C 2.338109 -4.025852 1.193414 -4.5 0 -4.5 
C -1.193414 -4.5 -2.338109 -4.025852 -3.181981 -3.181981 
C -4.025852 -2.338109 -4.5 -1.193414 -4.5 0 
C -4.5 1.193414 -4.025852 2.338109 -3.181981 3.181981 
C -2.338109 4.025852 -1.193414 4.5 0 4.5 
z
" style="stroke: #dd8452; stroke-opacity: 0.8"/>
    </defs>
    <g clip-path="url(#p3791a179d6)">
     <use xlink:href="#m85b5ac11bf" x="71.478037" y="47.017624" style="fill: #dd8452; fill-opacity: 0.8; stroke: #dd8452; stroke-opacity: 0.8"/>
     <use xlink:href="#m85b5ac11bf" x="120.649872" y="112.055437" style="fill: #dd8452; fill-opacity: 0.8; stroke: #dd8452; stroke-opacity: 0.8"/>
     <use xlink:href="#m85b5ac11bf" x="169.821708" y="90.812124" style="fill: #dd8452; fill-opacity: 0.8; stroke: #dd8452; stroke-opacity: 0.8"/>
     <use xlink:href="#m85b5ac11bf" x="218.993543" y="142.911551" style="fill: #dd8452; fill-opacity: 0.8; stroke: #dd8452; stroke-opacity: 0.8"/>
     <use xlink:href="#m85b5ac11bf" x="268.165379" y="266.001307" style="fill: #dd8452; fill-opacity: 0.8; stroke: #dd8452; stroke-opacity: 0.8"/>
     <use xlink:href="#m85b5ac11bf" x="317.337214" y="230.219054" style="fill: #dd8452; fill-opacity: 0.8; stroke: #dd8452; stroke-opacity: 0.8"/>
     <use xlink:href="#m85b5ac11bf" x="71.478037" y="21.095923" style="fill: #dd8452; fill-opacity: 0.8; stroke: #dd8452; stroke-opacity: 0.8"/>
     <use xlink:href="#m85b5ac11bf" x="120.649872" y="112.831856" style="fill: #dd8452; fill-opacity: 0.8; stroke: #dd8452; stroke-opacity: 0.8"/>
     <use xlink:href="#m85b5ac11bf" x="169.821708" y="145.472931" style="fill: #dd8452; fill-opacity: 0.8; stroke: #dd8452; stroke-opacity: 0.8"/>
     <use xlink:href="#m85b5ac11bf" x="218.993543" y="230.59471" style="fill: #dd8452; fill-opacity: 0.8; stroke: #dd8452; stroke-opacity: 0.8"/>
     <use xlink:href="#m85b5ac11bf" x="268.165379" y="217.876488" style="fill: #dd8452; fill-opacity: 0.8; stroke: #dd8452; stroke-opacity: 0.8"/>
     <use xlink:href="#m85b5ac11bf" x="317.337214" y="213.137049" style="fill: #dd8452; fill-opacity: 0.8; stroke: #dd8452; stroke-opacity: 0.8"/>
     <use xlink:href="#m85b5ac11bf" x="71.478037" y="19.884376" style="fill: #dd8452; fill-opacity: 0.8; stroke: #dd8452; stroke-opacity: 0.8"/>
     <use xlink:href="#m85b5ac11bf" x="120.649872" y="64.991563" style="fill: #dd8452; fill-opacity: 0.8; stroke: #dd8452; stroke-opacity: 0.8"/>
     <use xlink:href="#m85b5ac11bf" x="169.821708" y="142.538305" style="fill: #dd8452; fill-opacity: 0.8; stroke: #dd8452; stroke-opacity: 0.8"/>
     <use xlink:href="#m85b5ac11bf" x="218.993543" y="151.056028" style="fill: #dd8452; fill-opacity: 0.8; stroke: #dd8452; stroke-opacity: 0.8"/>
     <use xlink:href="#m85b5ac11bf" x="268.165379" y="180.407468" style="fill: #dd8452; fill-opacity: 0.8; stroke: #dd8452; stroke-opacity: 0.8"/>
     <use xlink:href="#m85b5ac11bf" x="317.337214" y="243.446467" style="fill: #dd8452; fill-opacity: 0.8; stroke: #dd8452; stroke-opacity: 0.8"/>
     <use xlink:href="#m85b5ac11bf" x="71.478037" y="67.947626" style="fill: #dd8452; fill-opacity: 0.8; stroke: #dd8452; stroke-opacity: 0.8"/>
     <use xlink:href="#m85b5ac11bf" x="120.649872" y="100.871849" style="fill: #dd8452; fill-opacity: 0.8; stroke: #dd8452; stroke-opacity: 0.8"/>
     <use xlink:href="#m85b5ac11bf" x="169.821708" y="122.824647" style="fill: #dd8452; fill-opacity: 0.8; stroke: #dd8452; stroke-opacity: 0.8"/>
     <use xlink:href="#m85b5ac11bf" x="218.993543" y="178.765418" style="fill: #dd8452; fill-opacity: 0.8; stroke: #dd8452; stroke-opacity: 0.8"/>
     <use xlink:href="#m85b5ac11bf" x="268.165379" y="226.725961" style="fill: #dd8452; fill-opacity: 0.8; stroke: #dd8452; stroke-opacity: 0.8"/>
     <use xlink:href="#m85b5ac11bf" x="317.337214" y="216.498803" style="fill: #dd8452; fill-opacity: 0.8; stroke: #dd8452; stroke-opacity: 0.8"/>
    </g>
   </g>
   <g id="PolyCollection_2">
    <defs>
     <path id="m7b5f439326" d="M 71.478037 -301.957763 
L 71.478037 -266.335116 
L 73.961463 -264.657896 
L 76.444889 -262.967925 
L 78.928315 -261.286648 
L 81.411741 -259.64058 
L 83.895167 -257.994513 
L 86.378593 -256.348445 
L 88.862019 -254.702378 
L 91.345445 -253.051444 
L 93.828871 -251.260762 
L 96.312297 -249.617351 
L 98.795723 -247.798237 
L 101.279149 -246.002683 
L 103.762575 -244.167583 
L 106.246001 -242.459426 
L 108.729427 -240.752828 
L 111.212854 -239.006352 
L 113.69628 -237.294099 
L 116.179706 -235.634293 
L 118.663132 -233.856244 
L 121.146558 -231.972146 
L 123.629984 -230.13403 
L 126.11341 -228.452032 
L 128.596836 -226.716695 
L 131.080262 -224.777347 
L 133.563688 -222.899009 
L 136.047114 -221.295819 
L 138.53054 -219.541415 
L 141.013966 -217.711665 
L 143.497392 -215.76345 
L 145.980818 -213.965191 
L 148.464244 -212.220728 
L 150.94767 -210.200952 
L 153.431096 -208.146415 
L 155.914522 -206.433031 
L 158.397948 -204.729674 
L 160.881374 -202.861145 
L 163.3648 -200.910143 
L 165.848226 -198.903873 
L 168.331652 -196.873614 
L 170.815078 -194.906776 
L 173.298504 -192.903697 
L 175.78193 -190.899989 
L 178.265356 -188.897042 
L 180.748782 -186.915185 
L 183.232208 -184.842379 
L 185.715635 -182.892486 
L 188.199061 -180.892433 
L 190.682487 -178.955452 
L 193.165913 -176.89112 
L 195.649339 -174.927986 
L 198.132765 -172.88805 
L 200.616191 -170.884695 
L 203.099617 -168.745881 
L 205.583043 -166.536821 
L 208.066469 -164.59422 
L 210.549895 -162.463126 
L 213.033321 -160.372591 
L 215.516747 -158.174732 
L 218.000173 -156.017314 
L 220.483599 -153.77722 
L 222.967025 -151.558909 
L 225.450451 -149.350688 
L 227.933877 -147.143772 
L 230.417303 -144.937364 
L 232.900729 -142.73426 
L 235.384155 -140.633628 
L 237.867581 -138.396849 
L 240.351007 -136.256955 
L 242.834433 -134.107572 
L 245.317859 -131.866628 
L 247.801285 -129.759052 
L 250.284711 -127.694338 
L 252.768137 -125.533046 
L 255.251563 -123.343437 
L 257.734989 -121.11981 
L 260.218416 -118.897862 
L 262.701842 -116.675914 
L 265.185268 -114.453966 
L 267.668694 -112.232018 
L 270.15212 -110.011773 
L 272.635546 -107.889691 
L 275.118972 -105.632698 
L 277.602398 -103.368097 
L 280.085824 -101.122279 
L 282.56925 -98.90644 
L 285.052676 -96.708523 
L 287.536102 -94.453464 
L 290.019528 -92.228026 
L 292.502954 -90.004737 
L 294.98638 -87.759142 
L 297.469806 -85.430894 
L 299.953232 -83.18663 
L 302.436658 -80.977986 
L 304.920084 -78.774467 
L 307.40351 -76.535162 
L 309.886936 -74.363794 
L 312.370362 -72.156473 
L 314.853788 -69.949151 
L 317.337214 -67.690419 
L 317.337214 -109.500076 
L 317.337214 -109.500076 
L 314.853788 -111.160979 
L 312.370362 -112.808992 
L 309.886936 -114.637212 
L 307.40351 -116.422268 
L 304.920084 -118.15704 
L 302.436658 -119.955379 
L 299.953232 -121.778182 
L 297.469806 -123.565088 
L 294.98638 -125.351258 
L 292.502954 -127.135362 
L 290.019528 -128.90568 
L 287.536102 -130.703042 
L 285.052676 -132.306377 
L 282.56925 -134.10043 
L 280.085824 -135.931551 
L 277.602398 -137.60604 
L 275.118972 -139.344598 
L 272.635546 -141.146773 
L 270.15212 -142.887378 
L 267.668694 -144.627983 
L 265.185268 -146.367298 
L 262.701842 -148.106068 
L 260.218416 -149.877406 
L 257.734989 -151.71083 
L 255.251563 -153.544253 
L 252.768137 -155.377677 
L 250.284711 -157.195463 
L 247.801285 -158.955233 
L 245.317859 -160.717816 
L 242.834433 -162.480399 
L 240.351007 -164.242806 
L 237.867581 -166.002492 
L 235.384155 -167.762177 
L 232.900729 -169.704627 
L 230.417303 -171.586242 
L 227.933877 -173.504767 
L 225.450451 -175.332173 
L 222.967025 -177.215935 
L 220.483599 -179.116872 
L 218.000173 -181.014106 
L 215.516747 -182.92273 
L 213.033321 -184.832074 
L 210.549895 -186.741058 
L 208.066469 -188.696906 
L 205.583043 -190.590213 
L 203.099617 -192.50301 
L 200.616191 -194.401204 
L 198.132765 -196.28564 
L 195.649339 -198.194679 
L 193.165913 -200.118193 
L 190.682487 -202.012757 
L 188.199061 -203.921158 
L 185.715635 -205.829535 
L 183.232208 -207.738255 
L 180.748782 -209.58638 
L 178.265356 -211.508758 
L 175.78193 -213.487247 
L 173.298504 -215.473461 
L 170.815078 -217.387766 
L 168.331652 -219.315366 
L 165.848226 -221.393388 
L 163.3648 -223.458794 
L 160.881374 -225.548396 
L 158.397948 -227.600268 
L 155.914522 -229.538903 
L 153.431096 -231.480091 
L 150.94767 -233.467676 
L 148.464244 -235.599443 
L 145.980818 -237.719704 
L 143.497392 -239.802844 
L 141.013966 -241.948239 
L 138.53054 -244.034331 
L 136.047114 -246.148426 
L 133.563688 -248.262522 
L 131.080262 -250.368516 
L 128.596836 -252.488697 
L 126.11341 -254.678877 
L 123.629984 -256.948063 
L 121.146558 -259.111733 
L 118.663132 -261.235358 
L 116.179706 -263.313655 
L 113.69628 -265.403059 
L 111.212854 -267.504455 
L 108.729427 -269.600983 
L 106.246001 -271.696777 
L 103.762575 -273.799838 
L 101.279149 -275.89907 
L 98.795723 -278.10409 
L 96.312297 -280.316432 
L 93.828871 -282.495942 
L 91.345445 -284.587997 
L 88.862019 -286.796448 
L 86.378593 -288.970596 
L 83.895167 -291.087419 
L 81.411741 -293.204242 
L 78.928315 -295.327702 
L 76.444889 -297.595879 
L 73.961463 -299.731575 
L 71.478037 -301.957763 
z
" style="stroke: #ffffff; stroke-opacity: 0.15; stroke-width: 1.5"/>
    </defs>
    <g clip-path="url(#p3791a179d6)">
     <use xlink:href="#m7b5f439326" x="0" y="336.111328" style="fill: #dd8452; fill-opacity: 0.15; stroke: #ffffff; stroke-opacity: 0.15; stroke-width: 1.5"/>
    </g>
   </g>
   <g id="line2d_9">
    <path d="M 71.478037 55.39486 
L 73.961463 56.398211 
L 76.444889 57.401562 
L 78.928315 58.404913 
L 81.411741 59.408264 
L 83.895167 60.411615 
L 86.378593 61.414966 
L 88.862019 62.418316 
L 91.345445 63.421667 
L 93.828871 64.425018 
L 96.312297 65.428369 
L 98.795723 66.43172 
L 101.279149 67.435071 
L 103.762575 68.438422 
L 106.246001 69.441773 
L 108.729427 70.445124 
L 111.212854 71.448475 
L 113.69628 72.451826 
L 116.179706 73.455177 
L 118.663132 74.458527 
L 121.146558 75.461878 
L 123.629984 76.465229 
L 126.11341 77.46858 
L 128.596836 78.471931 
L 131.080262 79.475282 
L 133.563688 80.478633 
L 136.047114 81.481984 
L 138.53054 82.485335 
L 141.013966 83.488686 
L 143.497392 84.492037 
L 145.980818 85.495388 
L 148.464244 86.498738 
L 150.94767 87.502089 
L 153.431096 88.50544 
L 155.914522 89.508791 
L 158.397948 90.512142 
L 160.881374 91.515493 
L 163.3648 92.518844 
L 165.848226 93.522195 
L 168.331652 94.525546 
L 170.815078 95.528897 
L 173.298504 96.532248 
L 175.78193 97.535599 
L 178.265356 98.538949 
L 180.748782 99.5423 
L 183.232208 100.545651 
L 185.715635 101.549002 
L 188.199061 102.552353 
L 190.682487 103.555704 
L 193.165913 104.559055 
L 195.649339 105.562406 
L 198.132765 106.565757 
L 200.616191 107.569108 
L 203.099617 108.572459 
L 205.583043 109.57581 
L 208.066469 110.57916 
L 210.549895 111.582511 
L 213.033321 112.585862 
L 215.516747 113.589213 
L 218.000173 114.592564 
L 220.483599 115.595915 
L 222.967025 116.599266 
L 225.450451 117.602617 
L 227.933877 118.605968 
L 230.417303 119.609319 
L 232.900729 120.61267 
L 235.384155 121.61602 
L 237.867581 122.619371 
L 240.351007 123.622722 
L 242.834433 124.626073 
L 245.317859 125.629424 
L 247.801285 126.632775 
L 250.284711 127.636126 
L 252.768137 128.639477 
L 255.251563 129.642828 
L 257.734989 130.646179 
L 260.218416 131.64953 
L 262.701842 132.652881 
L 265.185268 133.656231 
L 267.668694 134.659582 
L 270.15212 135.662933 
L 272.635546 136.666284 
L 275.118972 137.669635 
L 277.602398 138.672986 
L 280.085824 139.676337 
L 282.56925 140.679688 
L 285.052676 141.683039 
L 287.536102 142.68639 
L 290.019528 143.689741 
L 292.502954 144.693092 
L 294.98638 145.696442 
L 297.469806 146.699793 
L 299.953232 147.703144 
L 302.436658 148.706495 
L 304.920084 149.709846 
L 307.40351 150.713197 
L 309.886936 151.716548 
L 312.370362 152.719899 
L 314.853788 153.72325 
L 317.337214 154.726601 
" clip-path="url(#p3791a179d6)" style="fill: none; stroke: #4c72b0; stroke-width: 3.375; stroke-linecap: round"/>
   </g>
   <g id="line2d_10">
    <path d="M 71.478037 50.620064 
L 73.961463 52.582272 
L 76.444889 54.54448 
L 78.928315 56.506688 
L 81.411741 58.468896 
L 83.895167 60.431104 
L 86.378593 62.393312 
L 88.862019 64.35552 
L 91.345445 66.317728 
L 93.828871 68.279936 
L 96.312297 70.242144 
L 98.795723 72.204352 
L 101.279149 74.16656 
L 103.762575 76.128767 
L 106.246001 78.090975 
L 108.729427 80.053183 
L 111.212854 82.015391 
L 113.69628 83.977599 
L 116.179706 85.939807 
L 118.663132 87.902015 
L 121.146558 89.864223 
L 123.629984 91.826431 
L 126.11341 93.788639 
L 128.596836 95.750847 
L 131.080262 97.713055 
L 133.563688 99.675263 
L 136.047114 101.637471 
L 138.53054 103.599678 
L 141.013966 105.561886 
L 143.497392 107.524094 
L 145.980818 109.486302 
L 148.464244 111.44851 
L 150.94767 113.410718 
L 153.431096 115.372926 
L 155.914522 117.335134 
L 158.397948 119.297342 
L 160.881374 121.25955 
L 163.3648 123.221758 
L 165.848226 125.183966 
L 168.331652 127.146174 
L 170.815078 129.108382 
L 173.298504 131.070589 
L 175.78193 133.032797 
L 178.265356 134.995005 
L 180.748782 136.957213 
L 183.232208 138.919421 
L 185.715635 140.881629 
L 188.199061 142.843837 
L 190.682487 144.806045 
L 193.165913 146.768253 
L 195.649339 148.730461 
L 198.132765 150.692669 
L 200.616191 152.654877 
L 203.099617 154.617085 
L 205.583043 156.579293 
L 208.066469 158.5415 
L 210.549895 160.503708 
L 213.033321 162.465916 
L 215.516747 164.428124 
L 218.000173 166.390332 
L 220.483599 168.35254 
L 222.967025 170.314748 
L 225.450451 172.276956 
L 227.933877 174.239164 
L 230.417303 176.201372 
L 232.900729 178.16358 
L 235.384155 180.125788 
L 237.867581 182.087996 
L 240.351007 184.050204 
L 242.834433 186.012411 
L 245.317859 187.974619 
L 247.801285 189.936827 
L 250.284711 191.899035 
L 252.768137 193.861243 
L 255.251563 195.823451 
L 257.734989 197.785659 
L 260.218416 199.747867 
L 262.701842 201.710075 
L 265.185268 203.672283 
L 267.668694 205.634491 
L 270.15212 207.596699 
L 272.635546 209.558907 
L 275.118972 211.521115 
L 277.602398 213.483322 
L 280.085824 215.44553 
L 282.56925 217.407738 
L 285.052676 219.369946 
L 287.536102 221.332154 
L 290.019528 223.294362 
L 292.502954 225.25657 
L 294.98638 227.218778 
L 297.469806 229.180986 
L 299.953232 231.143194 
L 302.436658 233.105402 
L 304.920084 235.06761 
L 307.40351 237.029818 
L 309.886936 238.992026 
L 312.370362 240.954233 
L 314.853788 242.916441 
L 317.337214 244.878649 
" clip-path="url(#p3791a179d6)" style="fill: none; stroke: #dd8452; stroke-width: 3.375; stroke-linecap: round"/>
   </g>
   <g id="patch_3">
    <path d="M 59.185078 280.86 
L 59.185078 7.2 
" style="fill: none; stroke: #ffffff; stroke-width: 1.875; stroke-linejoin: miter; stroke-linecap: square"/>
   </g>
   <g id="patch_4">
    <path d="M 59.185078 280.86 
L 329.630173 280.86 
" style="fill: none; stroke: #ffffff; stroke-width: 1.875; stroke-linejoin: miter; stroke-linecap: square"/>
   </g>
   <g id="text_11">
    <g id="patch_5">
     <path d="M 201.183851 112.651847 
L 315.651511 158.898939 
Q 319.823849 160.584642 321.509552 156.412304 
L 326.664995 143.651903 
Q 328.350698 139.479565 324.17836 137.793862 
L 209.7107 91.546771 
Q 205.538362 89.861067 203.852659 94.033405 
L 198.697217 106.793806 
Q 197.011513 110.966144 201.183851 112.651847 
z
" style="fill: #ffffff; opacity: 0.5; stroke: #ffffff; stroke-width: 1.5; stroke-linejoin: miter"/>
    </g>
    <!-- slope = -0.74±0.11 -->
    <g style="fill: #ff00ff" transform="translate(203.986333 105.715335) rotate(21.999636) scale(0.15 -0.15)">
     <defs>
      <path id="ArialMT-73" d="M 197 991 
L 753 1078 
Q 800 744 1014 566 
Q 1228 388 1613 388 
Q 2000 388 2187 545 
Q 2375 703 2375 916 
Q 2375 1106 2209 1216 
Q 2094 1291 1634 1406 
Q 1016 1563 777 1677 
Q 538 1791 414 1992 
Q 291 2194 291 2438 
Q 291 2659 392 2848 
Q 494 3038 669 3163 
Q 800 3259 1026 3326 
Q 1253 3394 1513 3394 
Q 1903 3394 2198 3281 
Q 2494 3169 2634 2976 
Q 2775 2784 2828 2463 
L 2278 2388 
Q 2241 2644 2061 2787 
Q 1881 2931 1553 2931 
Q 1166 2931 1000 2803 
Q 834 2675 834 2503 
Q 834 2394 903 2306 
Q 972 2216 1119 2156 
Q 1203 2125 1616 2013 
Q 2213 1853 2448 1751 
Q 2684 1650 2818 1456 
Q 2953 1263 2953 975 
Q 2953 694 2789 445 
Q 2625 197 2315 61 
Q 2006 -75 1616 -75 
Q 969 -75 630 194 
Q 291 463 197 991 
z
" transform="scale(0.015625)"/>
      <path id="ArialMT-70" d="M 422 -1272 
L 422 3319 
L 934 3319 
L 934 2888 
Q 1116 3141 1344 3267 
Q 1572 3394 1897 3394 
Q 2322 3394 2647 3175 
Q 2972 2956 3137 2557 
Q 3303 2159 3303 1684 
Q 3303 1175 3120 767 
Q 2938 359 2589 142 
Q 2241 -75 1856 -75 
Q 1575 -75 1351 44 
Q 1128 163 984 344 
L 984 -1272 
L 422 -1272 
z
M 931 1641 
Q 931 1000 1190 694 
Q 1450 388 1819 388 
Q 2194 388 2461 705 
Q 2728 1022 2728 1688 
Q 2728 2322 2467 2637 
Q 2206 2953 1844 2953 
Q 1484 2953 1207 2617 
Q 931 2281 931 1641 
z
" transform="scale(0.015625)"/>
      <path id="ArialMT-65" d="M 2694 1069 
L 3275 997 
Q 3138 488 2766 206 
Q 2394 -75 1816 -75 
Q 1088 -75 661 373 
Q 234 822 234 1631 
Q 234 2469 665 2931 
Q 1097 3394 1784 3394 
Q 2450 3394 2872 2941 
Q 3294 2488 3294 1666 
Q 3294 1616 3291 1516 
L 816 1516 
Q 847 969 1125 678 
Q 1403 388 1819 388 
Q 2128 388 2347 550 
Q 2566 713 2694 1069 
z
M 847 1978 
L 2700 1978 
Q 2663 2397 2488 2606 
Q 2219 2931 1791 2931 
Q 1403 2931 1139 2672 
Q 875 2413 847 1978 
z
" transform="scale(0.015625)"/>
      <path id="ArialMT-20" transform="scale(0.015625)"/>
      <path id="ArialMT-3d" d="M 3381 2694 
L 356 2694 
L 356 3219 
L 3381 3219 
L 3381 2694 
z
M 3381 1303 
L 356 1303 
L 356 1828 
L 3381 1828 
L 3381 1303 
z
" transform="scale(0.015625)"/>
      <path id="ArialMT-2d" d="M 203 1375 
L 203 1941 
L 1931 1941 
L 1931 1375 
L 203 1375 
z
" transform="scale(0.015625)"/>
      <path id="ArialMT-2e" d="M 581 0 
L 581 641 
L 1222 641 
L 1222 0 
L 581 0 
z
" transform="scale(0.015625)"/>
      <path id="ArialMT-37" d="M 303 3981 
L 303 4522 
L 3269 4522 
L 3269 4084 
Q 2831 3619 2401 2847 
Q 1972 2075 1738 1259 
Q 1569 684 1522 0 
L 944 0 
Q 953 541 1156 1306 
Q 1359 2072 1739 2783 
Q 2119 3494 2547 3981 
L 303 3981 
z
" transform="scale(0.015625)"/>
      <path id="ArialMT-b1" d="M 1491 813 
L 1491 2072 
L 244 2072 
L 244 2594 
L 1491 2594 
L 1491 3841 
L 2022 3841 
L 2022 2594 
L 3269 2594 
L 3269 2072 
L 2022 2072 
L 2022 813 
L 1491 813 
z
M 3269 0 
L 244 0 
L 244 525 
L 3269 525 
L 3269 0 
z
" transform="scale(0.015625)"/>
      <path id="ArialMT-31" d="M 2384 0 
L 1822 0 
L 1822 3584 
Q 1619 3391 1289 3197 
Q 959 3003 697 2906 
L 697 3450 
Q 1169 3672 1522 3987 
Q 1875 4303 2022 4600 
L 2384 4600 
L 2384 0 
z
" transform="scale(0.015625)"/>
     </defs>
     <use xlink:href="#ArialMT-73"/>
     <use xlink:href="#ArialMT-6c" x="50"/>
     <use xlink:href="#ArialMT-6f" x="72.216797"/>
     <use xlink:href="#ArialMT-70" x="127.832031"/>
     <use xlink:href="#ArialMT-65" x="183.447266"/>
     <use xlink:href="#ArialMT-20" x="239.0625"/>
     <use xlink:href="#ArialMT-3d" x="266.845703"/>
     <use xlink:href="#ArialMT-20" x="325.244141"/>
     <use xlink:href="#ArialMT-2d" x="353.027344"/>
     <use xlink:href="#ArialMT-30" x="386.328125"/>
     <use xlink:href="#ArialMT-2e" x="441.943359"/>
     <use xlink:href="#ArialMT-37" x="469.726562"/>
     <use xlink:href="#ArialMT-34" x="525.341797"/>
     <use xlink:href="#ArialMT-b1" x="580.957031"/>
     <use xlink:href="#ArialMT-30" x="635.839844"/>
     <use xlink:href="#ArialMT-2e" x="691.455078"/>
     <use xlink:href="#ArialMT-31" x="719.238281"/>
     <use xlink:href="#ArialMT-31" x="767.478516"/>
    </g>
   </g>
   <g id="text_12">
    <g id="patch_6">
     <path d="M 182.149352 143.79898 
L 314.547406 248.409509 
Q 318.078266 251.199317 320.868074 247.668457 
L 329.594942 236.623486 
Q 332.38475 233.092626 328.85389 230.302818 
L 196.455836 125.692289 
Q 192.924976 122.902481 190.135168 126.433341 
L 181.4083 137.478312 
Q 178.618492 141.009172 182.149352 143.79898 
z
" style="fill: #ffffff; opacity: 0.5; stroke: #ffffff; stroke-width: 1.5; stroke-linejoin: miter"/>
    </g>
    <!-- slope = (-0.74-0.71)±0.12 -->
    <g style="fill: #ff00ff" transform="translate(186.896385 137.791001) rotate(38.313016) scale(0.15 -0.15)">
     <defs>
      <path id="ArialMT-28" d="M 1497 -1347 
Q 1031 -759 709 28 
Q 388 816 388 1659 
Q 388 2403 628 3084 
Q 909 3875 1497 4659 
L 1900 4659 
Q 1522 4009 1400 3731 
Q 1209 3300 1100 2831 
Q 966 2247 966 1656 
Q 966 153 1900 -1347 
L 1497 -1347 
z
" transform="scale(0.015625)"/>
      <path id="ArialMT-29" d="M 791 -1347 
L 388 -1347 
Q 1322 153 1322 1656 
Q 1322 2244 1188 2822 
Q 1081 3291 891 3722 
Q 769 4003 388 4659 
L 791 4659 
Q 1378 3875 1659 3084 
Q 1900 2403 1900 1659 
Q 1900 816 1576 28 
Q 1253 -759 791 -1347 
z
" transform="scale(0.015625)"/>
     </defs>
     <use xlink:href="#ArialMT-73"/>
     <use xlink:href="#ArialMT-6c" x="50"/>
     <use xlink:href="#ArialMT-6f" x="72.216797"/>
     <use xlink:href="#ArialMT-70" x="127.832031"/>
     <use xlink:href="#ArialMT-65" x="183.447266"/>
     <use xlink:href="#ArialMT-20" x="239.0625"/>
     <use xlink:href="#ArialMT-3d" x="266.845703"/>
     <use xlink:href="#ArialMT-20" x="325.244141"/>
     <use xlink:href="#ArialMT-28" x="353.027344"/>
     <use xlink:href="#ArialMT-2d" x="386.328125"/>
     <use xlink:href="#ArialMT-30" x="419.628906"/>
     <use xlink:href="#ArialMT-2e" x="475.244141"/>
     <use xlink:href="#ArialMT-37" x="503.027344"/>
     <use xlink:href="#ArialMT-34" x="558.642578"/>
     <use xlink:href="#ArialMT-2d" x="614.257812"/>
     <use xlink:href="#ArialMT-30" x="647.558594"/>
     <use xlink:href="#ArialMT-2e" x="703.173828"/>
     <use xlink:href="#ArialMT-37" x="730.957031"/>
     <use xlink:href="#ArialMT-31" x="786.572266"/>
     <use xlink:href="#ArialMT-29" x="842.1875"/>
     <use xlink:href="#ArialMT-b1" x="875.488281"/>
     <use xlink:href="#ArialMT-30" x="930.371094"/>
     <use xlink:href="#ArialMT-2e" x="985.986328"/>
     <use xlink:href="#ArialMT-31" x="1013.769531"/>
     <use xlink:href="#ArialMT-32" x="1069.384766"/>
    </g>
   </g>
  </g>
  <g id="legend_1">
   <g id="text_13">
    <!-- drug -->
    <g style="fill: #262626" transform="translate(341.799715 149.263711) scale(0.18 -0.18)">
     <defs>
      <path id="ArialMT-64" d="M 2575 0 
L 2575 419 
Q 2259 -75 1647 -75 
Q 1250 -75 917 144 
Q 584 363 401 755 
Q 219 1147 219 1656 
Q 219 2153 384 2558 
Q 550 2963 881 3178 
Q 1213 3394 1622 3394 
Q 1922 3394 2156 3267 
Q 2391 3141 2538 2938 
L 2538 4581 
L 3097 4581 
L 3097 0 
L 2575 0 
z
M 797 1656 
Q 797 1019 1065 703 
Q 1334 388 1700 388 
Q 2069 388 2326 689 
Q 2584 991 2584 1609 
Q 2584 2291 2321 2609 
Q 2059 2928 1675 2928 
Q 1300 2928 1048 2622 
Q 797 2316 797 1656 
z
" transform="scale(0.015625)"/>
     </defs>
     <use xlink:href="#ArialMT-64"/>
     <use xlink:href="#ArialMT-72" x="55.615234"/>
     <use xlink:href="#ArialMT-75" x="88.916016"/>
     <use xlink:href="#ArialMT-67" x="144.53125"/>
    </g>
   </g>
   <g id="PathCollection_3">
    <g>
     <use xlink:href="#m209cb2fcaa" x="347.707957" y="168.781289" style="fill: #4c72b0; fill-opacity: 0.8; stroke: #4c72b0; stroke-opacity: 0.8"/>
    </g>
   </g>
   <g id="text_14">
    <!-- A -->
    <g style="fill: #262626" transform="translate(377.407957 173.112539) scale(0.165 -0.165)">
     <defs>
      <path id="ArialMT-41" d="M -9 0 
L 1750 4581 
L 2403 4581 
L 4278 0 
L 3588 0 
L 3053 1388 
L 1138 1388 
L 634 0 
L -9 0 
z
M 1313 1881 
L 2866 1881 
L 2388 3150 
Q 2169 3728 2063 4100 
Q 1975 3659 1816 3225 
L 1313 1881 
z
" transform="scale(0.015625)"/>
     </defs>
     <use xlink:href="#ArialMT-41"/>
    </g>
   </g>
   <g id="PathCollection_4">
    <g>
     <use xlink:href="#m85b5ac11bf" x="347.707957" y="192.121055" style="fill: #dd8452; fill-opacity: 0.8; stroke: #dd8452; stroke-opacity: 0.8"/>
    </g>
   </g>
   <g id="text_15">
    <!-- B -->
    <g style="fill: #262626" transform="translate(377.407957 196.452305) scale(0.165 -0.165)">
     <defs>
      <path id="ArialMT-42" d="M 469 0 
L 469 4581 
L 2188 4581 
Q 2713 4581 3030 4442 
Q 3347 4303 3526 4014 
Q 3706 3725 3706 3409 
Q 3706 3116 3547 2856 
Q 3388 2597 3066 2438 
Q 3481 2316 3704 2022 
Q 3928 1728 3928 1328 
Q 3928 1006 3792 729 
Q 3656 453 3456 303 
Q 3256 153 2954 76 
Q 2653 0 2216 0 
L 469 0 
z
M 1075 2656 
L 2066 2656 
Q 2469 2656 2644 2709 
Q 2875 2778 2992 2937 
Q 3109 3097 3109 3338 
Q 3109 3566 3000 3739 
Q 2891 3913 2687 3977 
Q 2484 4041 1991 4041 
L 1075 4041 
L 1075 2656 
z
M 1075 541 
L 2216 541 
Q 2509 541 2628 563 
Q 2838 600 2978 687 
Q 3119 775 3209 942 
Q 3300 1109 3300 1328 
Q 3300 1584 3169 1773 
Q 3038 1963 2805 2039 
Q 2572 2116 2134 2116 
L 1075 2116 
L 1075 541 
z
" transform="scale(0.015625)"/>
     </defs>
     <use xlink:href="#ArialMT-42"/>
    </g>
   </g>
  </g>
 </g>
 <defs>
  <clipPath id="p3791a179d6">
   <rect x="59.185078" y="7.2" width="270.445095" height="273.66"/>
  </clipPath>
 </defs>
</svg>
